<?xml version="1.0" encoding="utf-8" standalone="no"?>
<!DOCTYPE svg PUBLIC "-//W3C//DTD SVG 1.1//EN"
  "http://www.w3.org/Graphics/SVG/1.1/DTD/svg11.dtd">
<svg xmlns:xlink="http://www.w3.org/1999/xlink" width="852.48pt" height="564.1575pt" viewBox="0 0 852.48 564.1575" xmlns="http://www.w3.org/2000/svg" version="1.1">
 <metadata>
  <rdf:RDF xmlns:dc="http://purl.org/dc/elements/1.1/" xmlns:cc="http://creativecommons.org/ns#" xmlns:rdf="http://www.w3.org/1999/02/22-rdf-syntax-ns#">
   <cc:Work>
    <dc:type rdf:resource="http://purl.org/dc/dcmitype/StillImage"/>
    <dc:date>2025-09-16T10:08:22.606209</dc:date>
    <dc:format>image/svg+xml</dc:format>
    <dc:creator>
     <cc:Agent>
      <dc:title>Matplotlib v3.10.3, https://matplotlib.org/</dc:title>
     </cc:Agent>
    </dc:creator>
   </cc:Work>
  </rdf:RDF>
 </metadata>
 <defs>
  <style type="text/css">*{stroke-linejoin: round; stroke-linecap: butt}</style>
 </defs>
 <g id="figure_1">
  <g id="patch_1">
   <path d="M 0 564.1575 
L 852.48 564.1575 
L 852.48 0 
L 0 0 
z
" style="fill: #ffffff"/>
  </g>
  <g id="axes_1">
   <g id="LineCollection_1">
    <path d="M 79.92595 304.485266 
L 149.18876 157.995228 
" clip-path="url(#p727ff9418c)" style="fill: none; stroke: #808080; stroke-width: 0.009783"/>
    <path d="M 149.18876 157.995228 
L 218.45157 480.419563 
" clip-path="url(#p727ff9418c)" style="fill: none; stroke: #808080; stroke-width: 0.047171"/>
    <path d="M 218.45157 480.419563 
L 287.71438 364.192965 
" clip-path="url(#p727ff9418c)" style="fill: none; stroke: #808080; stroke-width: 0.018325"/>
    <path d="M 287.71438 364.192965 
L 356.97719 235.53312 
" clip-path="url(#p727ff9418c)" style="fill: none; stroke: #808080; stroke-width: 0.005204"/>
    <path d="M 356.97719 235.53312 
L 426.24 82.810703 
" clip-path="url(#p727ff9418c)" style="fill: none; stroke: #808080; stroke-width: 0.072071"/>
    <path d="M 426.24 82.810703 
L 495.50281 71.488079 
" clip-path="url(#p727ff9418c)" style="fill: none; stroke: #808080; stroke-width: 0.032875"/>
    <path d="M 495.50281 71.488079 
L 564.76562 510.826921 
" clip-path="url(#p727ff9418c)" style="fill: none; stroke: #808080; stroke-width: 0.007284"/>
    <path d="M 564.76562 510.826921 
L 634.02843 342.476339 
" clip-path="url(#p727ff9418c)" style="fill: none; stroke: #808080; stroke-width: 0.048487"/>
    <path d="M 634.02843 342.476339 
L 703.29124 226.767585 
" clip-path="url(#p727ff9418c)" style="fill: none; stroke: #808080; stroke-width: 0.043281"/>
    <path d="M 703.29124 226.767585 
L 772.55405 284.941234 
" clip-path="url(#p727ff9418c)" style="fill: none; stroke: #808080; stroke-width: 0.007205"/>
   </g>
   <g id="PathCollection_1">
    <path d="M 79.92595 306.681121 
C 80.508298 306.681121 81.066872 306.449751 81.478654 306.03797 
C 81.890436 305.626188 82.121805 305.067613 82.121805 304.485266 
C 82.121805 303.902919 81.890436 303.344344 81.478654 302.932562 
C 81.066872 302.52078 80.508298 302.289411 79.92595 302.289411 
C 79.343603 302.289411 78.785029 302.52078 78.373247 302.932562 
C 77.961465 303.344344 77.730096 303.902919 77.730096 304.485266 
C 77.730096 305.067613 77.961465 305.626188 78.373247 306.03797 
C 78.785029 306.449751 79.343603 306.681121 79.92595 306.681121 
z
" clip-path="url(#p727ff9418c)" style="fill: #add8e6; stroke: #add8e6"/>
    <path d="M 149.18876 159.144091 
C 149.493442 159.144091 149.785686 159.02304 150.001129 158.807597 
C 150.216572 158.592154 150.337623 158.29991 150.337623 157.995228 
C 150.337623 157.690547 150.216572 157.398303 150.001129 157.18286 
C 149.785686 156.967417 149.493442 156.846366 149.18876 156.846366 
C 148.884078 156.846366 148.591834 156.967417 148.376392 157.18286 
C 148.160949 157.398303 148.039898 157.690547 148.039898 157.995228 
C 148.039898 158.29991 148.160949 158.592154 148.376392 158.807597 
C 148.591834 159.02304 148.884078 159.144091 149.18876 159.144091 
z
" clip-path="url(#p727ff9418c)" style="fill: #add8e6; stroke: #add8e6"/>
    <path d="M 218.45157 483.515127 
C 219.272524 483.515127 220.059963 483.188959 220.640465 482.608457 
C 221.220967 482.027956 221.547135 481.240516 221.547135 480.419563 
C 221.547135 479.598609 221.220967 478.81117 220.640465 478.230668 
C 220.059963 477.650166 219.272524 477.323998 218.45157 477.323998 
C 217.630617 477.323998 216.843177 477.650166 216.262676 478.230668 
C 215.682174 478.81117 215.356006 479.598609 215.356006 480.419563 
C 215.356006 481.240516 215.682174 482.027956 216.262676 482.608457 
C 216.843177 483.188959 217.630617 483.515127 218.45157 483.515127 
z
" clip-path="url(#p727ff9418c)" style="fill: #add8e6; stroke: #add8e6"/>
    <path d="M 287.71438 366.38882 
C 288.296728 366.38882 288.855302 366.157451 289.267084 365.745669 
C 289.678866 365.333887 289.910235 364.775312 289.910235 364.192965 
C 289.910235 363.610618 289.678866 363.052043 289.267084 362.640261 
C 288.855302 362.22848 288.296728 361.99711 287.71438 361.99711 
C 287.132033 361.99711 286.573458 362.22848 286.161677 362.640261 
C 285.749895 363.052043 285.518526 363.610618 285.518526 364.192965 
C 285.518526 364.775312 285.749895 365.333887 286.161677 365.745669 
C 286.573458 366.157451 287.132033 366.38882 287.71438 366.38882 
z
" clip-path="url(#p727ff9418c)" style="fill: #add8e6; stroke: #add8e6"/>
    <path d="M 356.97719 236.681982 
C 357.281872 236.681982 357.574116 236.560931 357.789559 236.345488 
C 358.005001 236.130046 358.126053 235.837802 358.126053 235.53312 
C 358.126053 235.228438 358.005001 234.936194 357.789559 234.720751 
C 357.574116 234.505309 357.281872 234.384257 356.97719 234.384257 
C 356.672508 234.384257 356.380264 234.505309 356.164822 234.720751 
C 355.949379 234.936194 355.828327 235.228438 355.828327 235.53312 
C 355.828327 235.837802 355.949379 236.130046 356.164822 236.345488 
C 356.380264 236.560931 356.672508 236.681982 356.97719 236.681982 
z
" clip-path="url(#p727ff9418c)" style="fill: #add8e6; stroke: #add8e6"/>
    <path d="M 426.24 85.906268 
C 427.060953 85.906268 427.848393 85.580099 428.428895 84.999598 
C 429.009396 84.419096 429.335564 83.631656 429.335564 82.810703 
C 429.335564 81.98975 429.009396 81.20231 428.428895 80.621808 
C 427.848393 80.041307 427.060953 79.715139 426.24 79.715139 
C 425.419047 79.715139 424.631607 80.041307 424.051105 80.621808 
C 423.470604 81.20231 423.144436 81.98975 423.144436 82.810703 
C 423.144436 83.631656 423.470604 84.419096 424.051105 84.999598 
C 424.631607 85.580099 425.419047 85.906268 426.24 85.906268 
z
" clip-path="url(#p727ff9418c)" style="fill: #add8e6; stroke: #add8e6"/>
    <path d="M 495.50281 73.683933 
C 496.085157 73.683933 496.643732 73.452564 497.055514 73.040782 
C 497.467295 72.629 497.698664 72.070426 497.698664 71.488079 
C 497.698664 70.905731 497.467295 70.347157 497.055514 69.935375 
C 496.643732 69.523593 496.085157 69.292224 495.50281 69.292224 
C 494.920462 69.292224 494.361888 69.523593 493.950106 69.935375 
C 493.538324 70.347157 493.306955 70.905731 493.306955 71.488079 
C 493.306955 72.070426 493.538324 72.629 493.950106 73.040782 
C 494.361888 73.452564 494.920462 73.683933 495.50281 73.683933 
z
" clip-path="url(#p727ff9418c)" style="fill: #add8e6; stroke: #add8e6"/>
    <path d="M 564.76562 511.975784 
C 565.070302 511.975784 565.362546 511.854733 565.577988 511.63929 
C 565.793431 511.423847 565.914482 511.131603 565.914482 510.826921 
C 565.914482 510.52224 565.793431 510.229996 565.577988 510.014553 
C 565.362546 509.79911 565.070302 509.678059 564.76562 509.678059 
C 564.460938 509.678059 564.168694 509.79911 563.953251 510.014553 
C 563.737809 510.229996 563.616757 510.52224 563.616757 510.826921 
C 563.616757 511.131603 563.737809 511.423847 563.953251 511.63929 
C 564.168694 511.854733 564.460938 511.975784 564.76562 511.975784 
z
" clip-path="url(#p727ff9418c)" style="fill: #add8e6; stroke: #add8e6"/>
    <path d="M 634.02843 345.571904 
C 634.849383 345.571904 635.636823 345.245735 636.217324 344.665234 
C 636.797826 344.084732 637.123994 343.297292 637.123994 342.476339 
C 637.123994 341.655386 636.797826 340.867946 636.217324 340.287445 
C 635.636823 339.706943 634.849383 339.380775 634.02843 339.380775 
C 633.207476 339.380775 632.420037 339.706943 631.839535 340.287445 
C 631.259033 340.867946 630.932865 341.655386 630.932865 342.476339 
C 630.932865 343.297292 631.259033 344.084732 631.839535 344.665234 
C 632.420037 345.245735 633.207476 345.571904 634.02843 345.571904 
z
" clip-path="url(#p727ff9418c)" style="fill: #add8e6; stroke: #add8e6"/>
    <path d="M 703.29124 228.96344 
C 703.873587 228.96344 704.432162 228.732071 704.843943 228.320289 
C 705.255725 227.908507 705.487094 227.349932 705.487094 226.767585 
C 705.487094 226.185238 705.255725 225.626663 704.843943 225.214881 
C 704.432162 224.8031 703.873587 224.57173 703.29124 224.57173 
C 702.708892 224.57173 702.150318 224.8031 701.738536 225.214881 
C 701.326754 225.626663 701.095385 226.185238 701.095385 226.767585 
C 701.095385 227.349932 701.326754 227.908507 701.738536 228.320289 
C 702.150318 228.732071 702.708892 228.96344 703.29124 228.96344 
z
" clip-path="url(#p727ff9418c)" style="fill: #add8e6; stroke: #add8e6"/>
    <path d="M 772.55405 286.090097 
C 772.858732 286.090097 773.150975 285.969046 773.366418 285.753603 
C 773.581861 285.53816 773.702912 285.245916 773.702912 284.941234 
C 773.702912 284.636553 773.581861 284.344309 773.366418 284.128866 
C 773.150975 283.913423 772.858732 283.792372 772.55405 283.792372 
C 772.249368 283.792372 771.957124 283.913423 771.741681 284.128866 
C 771.526238 284.344309 771.405187 284.636553 771.405187 284.941234 
C 771.405187 285.245916 771.526238 285.53816 771.741681 285.753603 
C 771.957124 285.969046 772.249368 286.090097 772.55405 286.090097 
z
" clip-path="url(#p727ff9418c)" style="fill: #add8e6; stroke: #add8e6"/>
   </g>
   <g id="text_1">
    <g clip-path="url(#p727ff9418c)">
     <!-- L6 -->
     <g transform="translate(74.594075 306.692766) scale(0.08 -0.08)">
      <defs>
       <path id="DejaVuSans-Bold-4c" d="M 588 4666 
L 1791 4666 
L 1791 909 
L 3903 909 
L 3903 0 
L 588 0 
L 588 4666 
z
" transform="scale(0.015625)"/>
       <path id="DejaVuSans-Bold-36" d="M 2316 2303 
Q 2000 2303 1842 2098 
Q 1684 1894 1684 1484 
Q 1684 1075 1842 870 
Q 2000 666 2316 666 
Q 2634 666 2792 870 
Q 2950 1075 2950 1484 
Q 2950 1894 2792 2098 
Q 2634 2303 2316 2303 
z
M 3803 4544 
L 3803 3681 
Q 3506 3822 3243 3889 
Q 2981 3956 2731 3956 
Q 2194 3956 1894 3657 
Q 1594 3359 1544 2772 
Q 1750 2925 1990 3001 
Q 2231 3078 2516 3078 
Q 3231 3078 3670 2659 
Q 4109 2241 4109 1563 
Q 4109 813 3618 361 
Q 3128 -91 2303 -91 
Q 1394 -91 895 523 
Q 397 1138 397 2266 
Q 397 3422 980 4083 
Q 1563 4744 2578 4744 
Q 2900 4744 3203 4694 
Q 3506 4644 3803 4544 
z
" transform="scale(0.015625)"/>
      </defs>
      <use xlink:href="#DejaVuSans-Bold-4c"/>
      <use xlink:href="#DejaVuSans-Bold-36" transform="translate(63.720703 0)"/>
     </g>
    </g>
   </g>
   <g id="text_2">
    <g clip-path="url(#p727ff9418c)">
     <!-- L7 -->
     <g transform="translate(143.856885 160.202728) scale(0.08 -0.08)">
      <defs>
       <path id="DejaVuSans-Bold-37" d="M 428 4666 
L 3944 4666 
L 3944 3988 
L 2125 0 
L 953 0 
L 2675 3781 
L 428 3781 
L 428 4666 
z
" transform="scale(0.015625)"/>
      </defs>
      <use xlink:href="#DejaVuSans-Bold-4c"/>
      <use xlink:href="#DejaVuSans-Bold-37" transform="translate(63.720703 0)"/>
     </g>
    </g>
   </g>
   <g id="text_3">
    <g clip-path="url(#p727ff9418c)">
     <!-- L8 -->
     <g transform="translate(213.119695 482.627063) scale(0.08 -0.08)">
      <defs>
       <path id="DejaVuSans-Bold-38" d="M 2228 2088 
Q 1891 2088 1709 1903 
Q 1528 1719 1528 1375 
Q 1528 1031 1709 848 
Q 1891 666 2228 666 
Q 2563 666 2741 848 
Q 2919 1031 2919 1375 
Q 2919 1722 2741 1905 
Q 2563 2088 2228 2088 
z
M 1350 2484 
Q 925 2613 709 2878 
Q 494 3144 494 3541 
Q 494 4131 934 4440 
Q 1375 4750 2228 4750 
Q 3075 4750 3515 4442 
Q 3956 4134 3956 3541 
Q 3956 3144 3739 2878 
Q 3522 2613 3097 2484 
Q 3572 2353 3814 2058 
Q 4056 1763 4056 1313 
Q 4056 619 3595 264 
Q 3134 -91 2228 -91 
Q 1319 -91 855 264 
Q 391 619 391 1313 
Q 391 1763 633 2058 
Q 875 2353 1350 2484 
z
M 1631 3419 
Q 1631 3141 1786 2991 
Q 1941 2841 2228 2841 
Q 2509 2841 2662 2991 
Q 2816 3141 2816 3419 
Q 2816 3697 2662 3845 
Q 2509 3994 2228 3994 
Q 1941 3994 1786 3844 
Q 1631 3694 1631 3419 
z
" transform="scale(0.015625)"/>
      </defs>
      <use xlink:href="#DejaVuSans-Bold-4c"/>
      <use xlink:href="#DejaVuSans-Bold-38" transform="translate(63.720703 0)"/>
     </g>
    </g>
   </g>
   <g id="text_4">
    <g clip-path="url(#p727ff9418c)">
     <!-- L9 -->
     <g transform="translate(282.382505 366.400465) scale(0.08 -0.08)">
      <defs>
       <path id="DejaVuSans-Bold-39" d="M 641 103 
L 641 966 
Q 928 831 1190 764 
Q 1453 697 1709 697 
Q 2247 697 2547 995 
Q 2847 1294 2900 1881 
Q 2688 1725 2447 1647 
Q 2206 1569 1925 1569 
Q 1209 1569 770 1986 
Q 331 2403 331 3084 
Q 331 3838 820 4291 
Q 1309 4744 2131 4744 
Q 3044 4744 3544 4128 
Q 4044 3513 4044 2388 
Q 4044 1231 3459 570 
Q 2875 -91 1856 -91 
Q 1528 -91 1228 -42 
Q 928 6 641 103 
z
M 2125 2350 
Q 2441 2350 2600 2554 
Q 2759 2759 2759 3169 
Q 2759 3575 2600 3781 
Q 2441 3988 2125 3988 
Q 1809 3988 1650 3781 
Q 1491 3575 1491 3169 
Q 1491 2759 1650 2554 
Q 1809 2350 2125 2350 
z
" transform="scale(0.015625)"/>
      </defs>
      <use xlink:href="#DejaVuSans-Bold-4c"/>
      <use xlink:href="#DejaVuSans-Bold-39" transform="translate(63.720703 0)"/>
     </g>
    </g>
   </g>
   <g id="text_5">
    <g clip-path="url(#p727ff9418c)">
     <!-- L10 -->
     <g transform="translate(348.86219 237.74062) scale(0.08 -0.08)">
      <defs>
       <path id="DejaVuSans-Bold-31" d="M 750 831 
L 1813 831 
L 1813 3847 
L 722 3622 
L 722 4441 
L 1806 4666 
L 2950 4666 
L 2950 831 
L 4013 831 
L 4013 0 
L 750 0 
L 750 831 
z
" transform="scale(0.015625)"/>
       <path id="DejaVuSans-Bold-30" d="M 2944 2338 
Q 2944 3213 2780 3570 
Q 2616 3928 2228 3928 
Q 1841 3928 1675 3570 
Q 1509 3213 1509 2338 
Q 1509 1453 1675 1090 
Q 1841 728 2228 728 
Q 2613 728 2778 1090 
Q 2944 1453 2944 2338 
z
M 4147 2328 
Q 4147 1169 3647 539 
Q 3147 -91 2228 -91 
Q 1306 -91 806 539 
Q 306 1169 306 2328 
Q 306 3491 806 4120 
Q 1306 4750 2228 4750 
Q 3147 4750 3647 4120 
Q 4147 3491 4147 2328 
z
" transform="scale(0.015625)"/>
      </defs>
      <use xlink:href="#DejaVuSans-Bold-4c"/>
      <use xlink:href="#DejaVuSans-Bold-31" transform="translate(63.720703 0)"/>
      <use xlink:href="#DejaVuSans-Bold-30" transform="translate(133.300781 0)"/>
     </g>
    </g>
   </g>
   <g id="text_6">
    <g clip-path="url(#p727ff9418c)">
     <!-- L11 -->
     <g transform="translate(418.125 85.018203) scale(0.08 -0.08)">
      <use xlink:href="#DejaVuSans-Bold-4c"/>
      <use xlink:href="#DejaVuSans-Bold-31" transform="translate(63.720703 0)"/>
      <use xlink:href="#DejaVuSans-Bold-31" transform="translate(133.300781 0)"/>
     </g>
    </g>
   </g>
   <g id="text_7">
    <g clip-path="url(#p727ff9418c)">
     <!-- L12 -->
     <g transform="translate(487.38781 73.695579) scale(0.08 -0.08)">
      <defs>
       <path id="DejaVuSans-Bold-32" d="M 1844 884 
L 3897 884 
L 3897 0 
L 506 0 
L 506 884 
L 2209 2388 
Q 2438 2594 2547 2791 
Q 2656 2988 2656 3200 
Q 2656 3528 2436 3728 
Q 2216 3928 1850 3928 
Q 1569 3928 1234 3808 
Q 900 3688 519 3450 
L 519 4475 
Q 925 4609 1322 4679 
Q 1719 4750 2100 4750 
Q 2938 4750 3402 4381 
Q 3866 4013 3866 3353 
Q 3866 2972 3669 2642 
Q 3472 2313 2841 1759 
L 1844 884 
z
" transform="scale(0.015625)"/>
      </defs>
      <use xlink:href="#DejaVuSans-Bold-4c"/>
      <use xlink:href="#DejaVuSans-Bold-31" transform="translate(63.720703 0)"/>
      <use xlink:href="#DejaVuSans-Bold-32" transform="translate(133.300781 0)"/>
     </g>
    </g>
   </g>
   <g id="text_8">
    <g clip-path="url(#p727ff9418c)">
     <!-- L13 -->
     <g transform="translate(556.65062 513.034421) scale(0.08 -0.08)">
      <defs>
       <path id="DejaVuSans-Bold-33" d="M 2981 2516 
Q 3453 2394 3698 2092 
Q 3944 1791 3944 1325 
Q 3944 631 3412 270 
Q 2881 -91 1863 -91 
Q 1503 -91 1142 -33 
Q 781 25 428 141 
L 428 1069 
Q 766 900 1098 814 
Q 1431 728 1753 728 
Q 2231 728 2486 893 
Q 2741 1059 2741 1369 
Q 2741 1688 2480 1852 
Q 2219 2016 1709 2016 
L 1228 2016 
L 1228 2791 
L 1734 2791 
Q 2188 2791 2409 2933 
Q 2631 3075 2631 3366 
Q 2631 3634 2415 3781 
Q 2200 3928 1806 3928 
Q 1516 3928 1219 3862 
Q 922 3797 628 3669 
L 628 4550 
Q 984 4650 1334 4700 
Q 1684 4750 2022 4750 
Q 2931 4750 3382 4451 
Q 3834 4153 3834 3553 
Q 3834 3144 3618 2883 
Q 3403 2622 2981 2516 
z
" transform="scale(0.015625)"/>
      </defs>
      <use xlink:href="#DejaVuSans-Bold-4c"/>
      <use xlink:href="#DejaVuSans-Bold-31" transform="translate(63.720703 0)"/>
      <use xlink:href="#DejaVuSans-Bold-33" transform="translate(133.300781 0)"/>
     </g>
    </g>
   </g>
   <g id="text_9">
    <g clip-path="url(#p727ff9418c)">
     <!-- L14 -->
     <g transform="translate(625.91343 344.683839) scale(0.08 -0.08)">
      <defs>
       <path id="DejaVuSans-Bold-34" d="M 2356 3675 
L 1038 1722 
L 2356 1722 
L 2356 3675 
z
M 2156 4666 
L 3494 4666 
L 3494 1722 
L 4159 1722 
L 4159 850 
L 3494 850 
L 3494 0 
L 2356 0 
L 2356 850 
L 288 850 
L 288 1881 
L 2156 4666 
z
" transform="scale(0.015625)"/>
      </defs>
      <use xlink:href="#DejaVuSans-Bold-4c"/>
      <use xlink:href="#DejaVuSans-Bold-31" transform="translate(63.720703 0)"/>
      <use xlink:href="#DejaVuSans-Bold-34" transform="translate(133.300781 0)"/>
     </g>
    </g>
   </g>
   <g id="text_10">
    <g clip-path="url(#p727ff9418c)">
     <!-- L15 -->
     <g transform="translate(695.17624 228.975085) scale(0.08 -0.08)">
      <defs>
       <path id="DejaVuSans-Bold-35" d="M 678 4666 
L 3669 4666 
L 3669 3781 
L 1638 3781 
L 1638 3059 
Q 1775 3097 1914 3117 
Q 2053 3138 2203 3138 
Q 3056 3138 3531 2711 
Q 4006 2284 4006 1522 
Q 4006 766 3489 337 
Q 2972 -91 2053 -91 
Q 1656 -91 1267 -14 
Q 878 63 494 219 
L 494 1166 
Q 875 947 1217 837 
Q 1559 728 1863 728 
Q 2300 728 2551 942 
Q 2803 1156 2803 1522 
Q 2803 1891 2551 2103 
Q 2300 2316 1863 2316 
Q 1603 2316 1309 2248 
Q 1016 2181 678 2041 
L 678 4666 
z
" transform="scale(0.015625)"/>
      </defs>
      <use xlink:href="#DejaVuSans-Bold-4c"/>
      <use xlink:href="#DejaVuSans-Bold-31" transform="translate(63.720703 0)"/>
      <use xlink:href="#DejaVuSans-Bold-35" transform="translate(133.300781 0)"/>
     </g>
    </g>
   </g>
   <g id="text_11">
    <g clip-path="url(#p727ff9418c)">
     <!-- L16 -->
     <g transform="translate(764.43905 287.148734) scale(0.08 -0.08)">
      <use xlink:href="#DejaVuSans-Bold-4c"/>
      <use xlink:href="#DejaVuSans-Bold-31" transform="translate(63.720703 0)"/>
      <use xlink:href="#DejaVuSans-Bold-36" transform="translate(133.300781 0)"/>
     </g>
    </g>
   </g>
   <g id="text_12">
    <g id="patch_2">
     <path d="M 23.9616 91.515375 
L 164.83785 91.515375 
Q 168.43785 91.515375 168.43785 87.915375 
L 168.43785 35.9895 
Q 168.43785 32.3895 164.83785 32.3895 
L 23.9616 32.3895 
Q 20.3616 32.3895 20.3616 35.9895 
L 20.3616 87.915375 
Q 20.3616 91.515375 23.9616 91.515375 
z
" style="fill: #ffffff; opacity: 0.8; stroke: #000000; stroke-linejoin: miter"/>
    </g>
    <!-- Method Statistics: -->
    <g style="fill: #262626" transform="translate(23.9616 45.107625) scale(0.12 -0.12)">
     <defs>
      <path id="DejaVuSans-4d" d="M 628 4666 
L 1569 4666 
L 2759 1491 
L 3956 4666 
L 4897 4666 
L 4897 0 
L 4281 0 
L 4281 4097 
L 3078 897 
L 2444 897 
L 1241 4097 
L 1241 0 
L 628 0 
L 628 4666 
z
" transform="scale(0.015625)"/>
      <path id="DejaVuSans-65" d="M 3597 1894 
L 3597 1613 
L 953 1613 
Q 991 1019 1311 708 
Q 1631 397 2203 397 
Q 2534 397 2845 478 
Q 3156 559 3463 722 
L 3463 178 
Q 3153 47 2828 -22 
Q 2503 -91 2169 -91 
Q 1331 -91 842 396 
Q 353 884 353 1716 
Q 353 2575 817 3079 
Q 1281 3584 2069 3584 
Q 2775 3584 3186 3129 
Q 3597 2675 3597 1894 
z
M 3022 2063 
Q 3016 2534 2758 2815 
Q 2500 3097 2075 3097 
Q 1594 3097 1305 2825 
Q 1016 2553 972 2059 
L 3022 2063 
z
" transform="scale(0.015625)"/>
      <path id="DejaVuSans-74" d="M 1172 4494 
L 1172 3500 
L 2356 3500 
L 2356 3053 
L 1172 3053 
L 1172 1153 
Q 1172 725 1289 603 
Q 1406 481 1766 481 
L 2356 481 
L 2356 0 
L 1766 0 
Q 1100 0 847 248 
Q 594 497 594 1153 
L 594 3053 
L 172 3053 
L 172 3500 
L 594 3500 
L 594 4494 
L 1172 4494 
z
" transform="scale(0.015625)"/>
      <path id="DejaVuSans-68" d="M 3513 2113 
L 3513 0 
L 2938 0 
L 2938 2094 
Q 2938 2591 2744 2837 
Q 2550 3084 2163 3084 
Q 1697 3084 1428 2787 
Q 1159 2491 1159 1978 
L 1159 0 
L 581 0 
L 581 4863 
L 1159 4863 
L 1159 2956 
Q 1366 3272 1645 3428 
Q 1925 3584 2291 3584 
Q 2894 3584 3203 3211 
Q 3513 2838 3513 2113 
z
" transform="scale(0.015625)"/>
      <path id="DejaVuSans-6f" d="M 1959 3097 
Q 1497 3097 1228 2736 
Q 959 2375 959 1747 
Q 959 1119 1226 758 
Q 1494 397 1959 397 
Q 2419 397 2687 759 
Q 2956 1122 2956 1747 
Q 2956 2369 2687 2733 
Q 2419 3097 1959 3097 
z
M 1959 3584 
Q 2709 3584 3137 3096 
Q 3566 2609 3566 1747 
Q 3566 888 3137 398 
Q 2709 -91 1959 -91 
Q 1206 -91 779 398 
Q 353 888 353 1747 
Q 353 2609 779 3096 
Q 1206 3584 1959 3584 
z
" transform="scale(0.015625)"/>
      <path id="DejaVuSans-64" d="M 2906 2969 
L 2906 4863 
L 3481 4863 
L 3481 0 
L 2906 0 
L 2906 525 
Q 2725 213 2448 61 
Q 2172 -91 1784 -91 
Q 1150 -91 751 415 
Q 353 922 353 1747 
Q 353 2572 751 3078 
Q 1150 3584 1784 3584 
Q 2172 3584 2448 3432 
Q 2725 3281 2906 2969 
z
M 947 1747 
Q 947 1113 1208 752 
Q 1469 391 1925 391 
Q 2381 391 2643 752 
Q 2906 1113 2906 1747 
Q 2906 2381 2643 2742 
Q 2381 3103 1925 3103 
Q 1469 3103 1208 2742 
Q 947 2381 947 1747 
z
" transform="scale(0.015625)"/>
      <path id="DejaVuSans-20" transform="scale(0.015625)"/>
      <path id="DejaVuSans-53" d="M 3425 4513 
L 3425 3897 
Q 3066 4069 2747 4153 
Q 2428 4238 2131 4238 
Q 1616 4238 1336 4038 
Q 1056 3838 1056 3469 
Q 1056 3159 1242 3001 
Q 1428 2844 1947 2747 
L 2328 2669 
Q 3034 2534 3370 2195 
Q 3706 1856 3706 1288 
Q 3706 609 3251 259 
Q 2797 -91 1919 -91 
Q 1588 -91 1214 -16 
Q 841 59 441 206 
L 441 856 
Q 825 641 1194 531 
Q 1563 422 1919 422 
Q 2459 422 2753 634 
Q 3047 847 3047 1241 
Q 3047 1584 2836 1778 
Q 2625 1972 2144 2069 
L 1759 2144 
Q 1053 2284 737 2584 
Q 422 2884 422 3419 
Q 422 4038 858 4394 
Q 1294 4750 2059 4750 
Q 2388 4750 2728 4690 
Q 3069 4631 3425 4513 
z
" transform="scale(0.015625)"/>
      <path id="DejaVuSans-61" d="M 2194 1759 
Q 1497 1759 1228 1600 
Q 959 1441 959 1056 
Q 959 750 1161 570 
Q 1363 391 1709 391 
Q 2188 391 2477 730 
Q 2766 1069 2766 1631 
L 2766 1759 
L 2194 1759 
z
M 3341 1997 
L 3341 0 
L 2766 0 
L 2766 531 
Q 2569 213 2275 61 
Q 1981 -91 1556 -91 
Q 1019 -91 701 211 
Q 384 513 384 1019 
Q 384 1609 779 1909 
Q 1175 2209 1959 2209 
L 2766 2209 
L 2766 2266 
Q 2766 2663 2505 2880 
Q 2244 3097 1772 3097 
Q 1472 3097 1187 3025 
Q 903 2953 641 2809 
L 641 3341 
Q 956 3463 1253 3523 
Q 1550 3584 1831 3584 
Q 2591 3584 2966 3190 
Q 3341 2797 3341 1997 
z
" transform="scale(0.015625)"/>
      <path id="DejaVuSans-69" d="M 603 3500 
L 1178 3500 
L 1178 0 
L 603 0 
L 603 3500 
z
M 603 4863 
L 1178 4863 
L 1178 4134 
L 603 4134 
L 603 4863 
z
" transform="scale(0.015625)"/>
      <path id="DejaVuSans-73" d="M 2834 3397 
L 2834 2853 
Q 2591 2978 2328 3040 
Q 2066 3103 1784 3103 
Q 1356 3103 1142 2972 
Q 928 2841 928 2578 
Q 928 2378 1081 2264 
Q 1234 2150 1697 2047 
L 1894 2003 
Q 2506 1872 2764 1633 
Q 3022 1394 3022 966 
Q 3022 478 2636 193 
Q 2250 -91 1575 -91 
Q 1294 -91 989 -36 
Q 684 19 347 128 
L 347 722 
Q 666 556 975 473 
Q 1284 391 1588 391 
Q 1994 391 2212 530 
Q 2431 669 2431 922 
Q 2431 1156 2273 1281 
Q 2116 1406 1581 1522 
L 1381 1569 
Q 847 1681 609 1914 
Q 372 2147 372 2553 
Q 372 3047 722 3315 
Q 1072 3584 1716 3584 
Q 2034 3584 2315 3537 
Q 2597 3491 2834 3397 
z
" transform="scale(0.015625)"/>
      <path id="DejaVuSans-63" d="M 3122 3366 
L 3122 2828 
Q 2878 2963 2633 3030 
Q 2388 3097 2138 3097 
Q 1578 3097 1268 2742 
Q 959 2388 959 1747 
Q 959 1106 1268 751 
Q 1578 397 2138 397 
Q 2388 397 2633 464 
Q 2878 531 3122 666 
L 3122 134 
Q 2881 22 2623 -34 
Q 2366 -91 2075 -91 
Q 1284 -91 818 406 
Q 353 903 353 1747 
Q 353 2603 823 3093 
Q 1294 3584 2113 3584 
Q 2378 3584 2631 3529 
Q 2884 3475 3122 3366 
z
" transform="scale(0.015625)"/>
      <path id="DejaVuSans-3a" d="M 750 794 
L 1409 794 
L 1409 0 
L 750 0 
L 750 794 
z
M 750 3309 
L 1409 3309 
L 1409 2516 
L 750 2516 
L 750 3309 
z
" transform="scale(0.015625)"/>
     </defs>
     <use xlink:href="#DejaVuSans-4d"/>
     <use xlink:href="#DejaVuSans-65" transform="translate(86.279297 0)"/>
     <use xlink:href="#DejaVuSans-74" transform="translate(147.802734 0)"/>
     <use xlink:href="#DejaVuSans-68" transform="translate(187.011719 0)"/>
     <use xlink:href="#DejaVuSans-6f" transform="translate(250.390625 0)"/>
     <use xlink:href="#DejaVuSans-64" transform="translate(311.572266 0)"/>
     <use xlink:href="#DejaVuSans-20" transform="translate(375.048828 0)"/>
     <use xlink:href="#DejaVuSans-53" transform="translate(406.835938 0)"/>
     <use xlink:href="#DejaVuSans-74" transform="translate(470.3125 0)"/>
     <use xlink:href="#DejaVuSans-61" transform="translate(509.521484 0)"/>
     <use xlink:href="#DejaVuSans-74" transform="translate(570.800781 0)"/>
     <use xlink:href="#DejaVuSans-69" transform="translate(610.009766 0)"/>
     <use xlink:href="#DejaVuSans-73" transform="translate(637.792969 0)"/>
     <use xlink:href="#DejaVuSans-74" transform="translate(689.892578 0)"/>
     <use xlink:href="#DejaVuSans-69" transform="translate(729.101562 0)"/>
     <use xlink:href="#DejaVuSans-63" transform="translate(756.884766 0)"/>
     <use xlink:href="#DejaVuSans-73" transform="translate(811.865234 0)"/>
     <use xlink:href="#DejaVuSans-3a" transform="translate(863.964844 0)"/>
    </g>
    <!-- Avg Effect: 0.010 -->
    <g style="fill: #262626" transform="translate(23.9616 58.545) scale(0.12 -0.12)">
     <defs>
      <path id="DejaVuSans-41" d="M 2188 4044 
L 1331 1722 
L 3047 1722 
L 2188 4044 
z
M 1831 4666 
L 2547 4666 
L 4325 0 
L 3669 0 
L 3244 1197 
L 1141 1197 
L 716 0 
L 50 0 
L 1831 4666 
z
" transform="scale(0.015625)"/>
      <path id="DejaVuSans-76" d="M 191 3500 
L 800 3500 
L 1894 563 
L 2988 3500 
L 3597 3500 
L 2284 0 
L 1503 0 
L 191 3500 
z
" transform="scale(0.015625)"/>
      <path id="DejaVuSans-67" d="M 2906 1791 
Q 2906 2416 2648 2759 
Q 2391 3103 1925 3103 
Q 1463 3103 1205 2759 
Q 947 2416 947 1791 
Q 947 1169 1205 825 
Q 1463 481 1925 481 
Q 2391 481 2648 825 
Q 2906 1169 2906 1791 
z
M 3481 434 
Q 3481 -459 3084 -895 
Q 2688 -1331 1869 -1331 
Q 1566 -1331 1297 -1286 
Q 1028 -1241 775 -1147 
L 775 -588 
Q 1028 -725 1275 -790 
Q 1522 -856 1778 -856 
Q 2344 -856 2625 -561 
Q 2906 -266 2906 331 
L 2906 616 
Q 2728 306 2450 153 
Q 2172 0 1784 0 
Q 1141 0 747 490 
Q 353 981 353 1791 
Q 353 2603 747 3093 
Q 1141 3584 1784 3584 
Q 2172 3584 2450 3431 
Q 2728 3278 2906 2969 
L 2906 3500 
L 3481 3500 
L 3481 434 
z
" transform="scale(0.015625)"/>
      <path id="DejaVuSans-45" d="M 628 4666 
L 3578 4666 
L 3578 4134 
L 1259 4134 
L 1259 2753 
L 3481 2753 
L 3481 2222 
L 1259 2222 
L 1259 531 
L 3634 531 
L 3634 0 
L 628 0 
L 628 4666 
z
" transform="scale(0.015625)"/>
      <path id="DejaVuSans-66" d="M 2375 4863 
L 2375 4384 
L 1825 4384 
Q 1516 4384 1395 4259 
Q 1275 4134 1275 3809 
L 1275 3500 
L 2222 3500 
L 2222 3053 
L 1275 3053 
L 1275 0 
L 697 0 
L 697 3053 
L 147 3053 
L 147 3500 
L 697 3500 
L 697 3744 
Q 697 4328 969 4595 
Q 1241 4863 1831 4863 
L 2375 4863 
z
" transform="scale(0.015625)"/>
      <path id="DejaVuSans-30" d="M 2034 4250 
Q 1547 4250 1301 3770 
Q 1056 3291 1056 2328 
Q 1056 1369 1301 889 
Q 1547 409 2034 409 
Q 2525 409 2770 889 
Q 3016 1369 3016 2328 
Q 3016 3291 2770 3770 
Q 2525 4250 2034 4250 
z
M 2034 4750 
Q 2819 4750 3233 4129 
Q 3647 3509 3647 2328 
Q 3647 1150 3233 529 
Q 2819 -91 2034 -91 
Q 1250 -91 836 529 
Q 422 1150 422 2328 
Q 422 3509 836 4129 
Q 1250 4750 2034 4750 
z
" transform="scale(0.015625)"/>
      <path id="DejaVuSans-2e" d="M 684 794 
L 1344 794 
L 1344 0 
L 684 0 
L 684 794 
z
" transform="scale(0.015625)"/>
      <path id="DejaVuSans-31" d="M 794 531 
L 1825 531 
L 1825 4091 
L 703 3866 
L 703 4441 
L 1819 4666 
L 2450 4666 
L 2450 531 
L 3481 531 
L 3481 0 
L 794 0 
L 794 531 
z
" transform="scale(0.015625)"/>
     </defs>
     <use xlink:href="#DejaVuSans-41"/>
     <use xlink:href="#DejaVuSans-76" transform="translate(62.533203 0)"/>
     <use xlink:href="#DejaVuSans-67" transform="translate(121.712891 0)"/>
     <use xlink:href="#DejaVuSans-20" transform="translate(185.189453 0)"/>
     <use xlink:href="#DejaVuSans-45" transform="translate(216.976562 0)"/>
     <use xlink:href="#DejaVuSans-66" transform="translate(280.160156 0)"/>
     <use xlink:href="#DejaVuSans-66" transform="translate(315.365234 0)"/>
     <use xlink:href="#DejaVuSans-65" transform="translate(350.570312 0)"/>
     <use xlink:href="#DejaVuSans-63" transform="translate(412.09375 0)"/>
     <use xlink:href="#DejaVuSans-74" transform="translate(467.074219 0)"/>
     <use xlink:href="#DejaVuSans-3a" transform="translate(506.283203 0)"/>
     <use xlink:href="#DejaVuSans-20" transform="translate(539.974609 0)"/>
     <use xlink:href="#DejaVuSans-30" transform="translate(571.761719 0)"/>
     <use xlink:href="#DejaVuSans-2e" transform="translate(635.384766 0)"/>
     <use xlink:href="#DejaVuSans-30" transform="translate(667.171875 0)"/>
     <use xlink:href="#DejaVuSans-31" transform="translate(730.794922 0)"/>
     <use xlink:href="#DejaVuSans-30" transform="translate(794.417969 0)"/>
    </g>
    <!-- Max Effect: 0.019 -->
    <g style="fill: #262626" transform="translate(23.9616 71.982375) scale(0.12 -0.12)">
     <defs>
      <path id="DejaVuSans-78" d="M 3513 3500 
L 2247 1797 
L 3578 0 
L 2900 0 
L 1881 1375 
L 863 0 
L 184 0 
L 1544 1831 
L 300 3500 
L 978 3500 
L 1906 2253 
L 2834 3500 
L 3513 3500 
z
" transform="scale(0.015625)"/>
      <path id="DejaVuSans-39" d="M 703 97 
L 703 672 
Q 941 559 1184 500 
Q 1428 441 1663 441 
Q 2288 441 2617 861 
Q 2947 1281 2994 2138 
Q 2813 1869 2534 1725 
Q 2256 1581 1919 1581 
Q 1219 1581 811 2004 
Q 403 2428 403 3163 
Q 403 3881 828 4315 
Q 1253 4750 1959 4750 
Q 2769 4750 3195 4129 
Q 3622 3509 3622 2328 
Q 3622 1225 3098 567 
Q 2575 -91 1691 -91 
Q 1453 -91 1209 -44 
Q 966 3 703 97 
z
M 1959 2075 
Q 2384 2075 2632 2365 
Q 2881 2656 2881 3163 
Q 2881 3666 2632 3958 
Q 2384 4250 1959 4250 
Q 1534 4250 1286 3958 
Q 1038 3666 1038 3163 
Q 1038 2656 1286 2365 
Q 1534 2075 1959 2075 
z
" transform="scale(0.015625)"/>
     </defs>
     <use xlink:href="#DejaVuSans-4d"/>
     <use xlink:href="#DejaVuSans-61" transform="translate(86.279297 0)"/>
     <use xlink:href="#DejaVuSans-78" transform="translate(147.558594 0)"/>
     <use xlink:href="#DejaVuSans-20" transform="translate(206.738281 0)"/>
     <use xlink:href="#DejaVuSans-45" transform="translate(238.525391 0)"/>
     <use xlink:href="#DejaVuSans-66" transform="translate(301.708984 0)"/>
     <use xlink:href="#DejaVuSans-66" transform="translate(336.914062 0)"/>
     <use xlink:href="#DejaVuSans-65" transform="translate(372.119141 0)"/>
     <use xlink:href="#DejaVuSans-63" transform="translate(433.642578 0)"/>
     <use xlink:href="#DejaVuSans-74" transform="translate(488.623047 0)"/>
     <use xlink:href="#DejaVuSans-3a" transform="translate(527.832031 0)"/>
     <use xlink:href="#DejaVuSans-20" transform="translate(561.523438 0)"/>
     <use xlink:href="#DejaVuSans-30" transform="translate(593.310547 0)"/>
     <use xlink:href="#DejaVuSans-2e" transform="translate(656.933594 0)"/>
     <use xlink:href="#DejaVuSans-30" transform="translate(688.720703 0)"/>
     <use xlink:href="#DejaVuSans-31" transform="translate(752.34375 0)"/>
     <use xlink:href="#DejaVuSans-39" transform="translate(815.966797 0)"/>
    </g>
    <!-- Success Rate: 6666.7% -->
    <g style="fill: #262626" transform="translate(23.9616 85.41975) scale(0.12 -0.12)">
     <defs>
      <path id="DejaVuSans-75" d="M 544 1381 
L 544 3500 
L 1119 3500 
L 1119 1403 
Q 1119 906 1312 657 
Q 1506 409 1894 409 
Q 2359 409 2629 706 
Q 2900 1003 2900 1516 
L 2900 3500 
L 3475 3500 
L 3475 0 
L 2900 0 
L 2900 538 
Q 2691 219 2414 64 
Q 2138 -91 1772 -91 
Q 1169 -91 856 284 
Q 544 659 544 1381 
z
M 1991 3584 
L 1991 3584 
z
" transform="scale(0.015625)"/>
      <path id="DejaVuSans-52" d="M 2841 2188 
Q 3044 2119 3236 1894 
Q 3428 1669 3622 1275 
L 4263 0 
L 3584 0 
L 2988 1197 
Q 2756 1666 2539 1819 
Q 2322 1972 1947 1972 
L 1259 1972 
L 1259 0 
L 628 0 
L 628 4666 
L 2053 4666 
Q 2853 4666 3247 4331 
Q 3641 3997 3641 3322 
Q 3641 2881 3436 2590 
Q 3231 2300 2841 2188 
z
M 1259 4147 
L 1259 2491 
L 2053 2491 
Q 2509 2491 2742 2702 
Q 2975 2913 2975 3322 
Q 2975 3731 2742 3939 
Q 2509 4147 2053 4147 
L 1259 4147 
z
" transform="scale(0.015625)"/>
      <path id="DejaVuSans-36" d="M 2113 2584 
Q 1688 2584 1439 2293 
Q 1191 2003 1191 1497 
Q 1191 994 1439 701 
Q 1688 409 2113 409 
Q 2538 409 2786 701 
Q 3034 994 3034 1497 
Q 3034 2003 2786 2293 
Q 2538 2584 2113 2584 
z
M 3366 4563 
L 3366 3988 
Q 3128 4100 2886 4159 
Q 2644 4219 2406 4219 
Q 1781 4219 1451 3797 
Q 1122 3375 1075 2522 
Q 1259 2794 1537 2939 
Q 1816 3084 2150 3084 
Q 2853 3084 3261 2657 
Q 3669 2231 3669 1497 
Q 3669 778 3244 343 
Q 2819 -91 2113 -91 
Q 1303 -91 875 529 
Q 447 1150 447 2328 
Q 447 3434 972 4092 
Q 1497 4750 2381 4750 
Q 2619 4750 2861 4703 
Q 3103 4656 3366 4563 
z
" transform="scale(0.015625)"/>
      <path id="DejaVuSans-37" d="M 525 4666 
L 3525 4666 
L 3525 4397 
L 1831 0 
L 1172 0 
L 2766 4134 
L 525 4134 
L 525 4666 
z
" transform="scale(0.015625)"/>
      <path id="DejaVuSans-25" d="M 4653 2053 
Q 4381 2053 4226 1822 
Q 4072 1591 4072 1178 
Q 4072 772 4226 539 
Q 4381 306 4653 306 
Q 4919 306 5073 539 
Q 5228 772 5228 1178 
Q 5228 1588 5073 1820 
Q 4919 2053 4653 2053 
z
M 4653 2450 
Q 5147 2450 5437 2106 
Q 5728 1763 5728 1178 
Q 5728 594 5436 251 
Q 5144 -91 4653 -91 
Q 4153 -91 3862 251 
Q 3572 594 3572 1178 
Q 3572 1766 3864 2108 
Q 4156 2450 4653 2450 
z
M 1428 4353 
Q 1159 4353 1004 4120 
Q 850 3888 850 3481 
Q 850 3069 1003 2837 
Q 1156 2606 1428 2606 
Q 1700 2606 1854 2837 
Q 2009 3069 2009 3481 
Q 2009 3884 1853 4118 
Q 1697 4353 1428 4353 
z
M 4250 4750 
L 4750 4750 
L 1831 -91 
L 1331 -91 
L 4250 4750 
z
M 1428 4750 
Q 1922 4750 2215 4408 
Q 2509 4066 2509 3481 
Q 2509 2891 2217 2550 
Q 1925 2209 1428 2209 
Q 931 2209 642 2551 
Q 353 2894 353 3481 
Q 353 4063 643 4406 
Q 934 4750 1428 4750 
z
" transform="scale(0.015625)"/>
     </defs>
     <use xlink:href="#DejaVuSans-53"/>
     <use xlink:href="#DejaVuSans-75" transform="translate(63.476562 0)"/>
     <use xlink:href="#DejaVuSans-63" transform="translate(126.855469 0)"/>
     <use xlink:href="#DejaVuSans-63" transform="translate(181.835938 0)"/>
     <use xlink:href="#DejaVuSans-65" transform="translate(236.816406 0)"/>
     <use xlink:href="#DejaVuSans-73" transform="translate(298.339844 0)"/>
     <use xlink:href="#DejaVuSans-73" transform="translate(350.439453 0)"/>
     <use xlink:href="#DejaVuSans-20" transform="translate(402.539062 0)"/>
     <use xlink:href="#DejaVuSans-52" transform="translate(434.326172 0)"/>
     <use xlink:href="#DejaVuSans-61" transform="translate(501.558594 0)"/>
     <use xlink:href="#DejaVuSans-74" transform="translate(562.837891 0)"/>
     <use xlink:href="#DejaVuSans-65" transform="translate(602.046875 0)"/>
     <use xlink:href="#DejaVuSans-3a" transform="translate(663.570312 0)"/>
     <use xlink:href="#DejaVuSans-20" transform="translate(697.261719 0)"/>
     <use xlink:href="#DejaVuSans-36" transform="translate(729.048828 0)"/>
     <use xlink:href="#DejaVuSans-36" transform="translate(792.671875 0)"/>
     <use xlink:href="#DejaVuSans-36" transform="translate(856.294922 0)"/>
     <use xlink:href="#DejaVuSans-36" transform="translate(919.917969 0)"/>
     <use xlink:href="#DejaVuSans-2e" transform="translate(983.541016 0)"/>
     <use xlink:href="#DejaVuSans-37" transform="translate(1015.328125 0)"/>
     <use xlink:href="#DejaVuSans-25" transform="translate(1078.951172 0)"/>
    </g>
   </g>
   <g id="text_13">
    <!-- Circuit Network Discovery: Activation Patching -->
    <g style="fill: #262626" transform="translate(214.7075 19.3575) scale(0.16 -0.16)">
     <defs>
      <path id="DejaVuSans-Bold-43" d="M 4288 256 
Q 3956 84 3597 -3 
Q 3238 -91 2847 -91 
Q 1681 -91 1000 561 
Q 319 1213 319 2328 
Q 319 3447 1000 4098 
Q 1681 4750 2847 4750 
Q 3238 4750 3597 4662 
Q 3956 4575 4288 4403 
L 4288 3438 
Q 3953 3666 3628 3772 
Q 3303 3878 2944 3878 
Q 2300 3878 1931 3465 
Q 1563 3053 1563 2328 
Q 1563 1606 1931 1193 
Q 2300 781 2944 781 
Q 3303 781 3628 887 
Q 3953 994 4288 1222 
L 4288 256 
z
" transform="scale(0.015625)"/>
      <path id="DejaVuSans-Bold-69" d="M 538 3500 
L 1656 3500 
L 1656 0 
L 538 0 
L 538 3500 
z
M 538 4863 
L 1656 4863 
L 1656 3950 
L 538 3950 
L 538 4863 
z
" transform="scale(0.015625)"/>
      <path id="DejaVuSans-Bold-72" d="M 3138 2547 
Q 2991 2616 2845 2648 
Q 2700 2681 2553 2681 
Q 2122 2681 1889 2404 
Q 1656 2128 1656 1613 
L 1656 0 
L 538 0 
L 538 3500 
L 1656 3500 
L 1656 2925 
Q 1872 3269 2151 3426 
Q 2431 3584 2822 3584 
Q 2878 3584 2943 3579 
Q 3009 3575 3134 3559 
L 3138 2547 
z
" transform="scale(0.015625)"/>
      <path id="DejaVuSans-Bold-63" d="M 3366 3391 
L 3366 2478 
Q 3138 2634 2908 2709 
Q 2678 2784 2431 2784 
Q 1963 2784 1702 2511 
Q 1441 2238 1441 1747 
Q 1441 1256 1702 982 
Q 1963 709 2431 709 
Q 2694 709 2930 787 
Q 3166 866 3366 1019 
L 3366 103 
Q 3103 6 2833 -42 
Q 2563 -91 2291 -91 
Q 1344 -91 809 395 
Q 275 881 275 1747 
Q 275 2613 809 3098 
Q 1344 3584 2291 3584 
Q 2566 3584 2833 3536 
Q 3100 3488 3366 3391 
z
" transform="scale(0.015625)"/>
      <path id="DejaVuSans-Bold-75" d="M 500 1363 
L 500 3500 
L 1625 3500 
L 1625 3150 
Q 1625 2866 1622 2436 
Q 1619 2006 1619 1863 
Q 1619 1441 1641 1255 
Q 1663 1069 1716 984 
Q 1784 875 1895 815 
Q 2006 756 2150 756 
Q 2500 756 2700 1025 
Q 2900 1294 2900 1772 
L 2900 3500 
L 4019 3500 
L 4019 0 
L 2900 0 
L 2900 506 
Q 2647 200 2364 54 
Q 2081 -91 1741 -91 
Q 1134 -91 817 281 
Q 500 653 500 1363 
z
" transform="scale(0.015625)"/>
      <path id="DejaVuSans-Bold-74" d="M 1759 4494 
L 1759 3500 
L 2913 3500 
L 2913 2700 
L 1759 2700 
L 1759 1216 
Q 1759 972 1856 886 
Q 1953 800 2241 800 
L 2816 800 
L 2816 0 
L 1856 0 
Q 1194 0 917 276 
Q 641 553 641 1216 
L 641 2700 
L 84 2700 
L 84 3500 
L 641 3500 
L 641 4494 
L 1759 4494 
z
" transform="scale(0.015625)"/>
      <path id="DejaVuSans-Bold-20" transform="scale(0.015625)"/>
      <path id="DejaVuSans-Bold-4e" d="M 588 4666 
L 1931 4666 
L 3628 1466 
L 3628 4666 
L 4769 4666 
L 4769 0 
L 3425 0 
L 1728 3200 
L 1728 0 
L 588 0 
L 588 4666 
z
" transform="scale(0.015625)"/>
      <path id="DejaVuSans-Bold-65" d="M 4031 1759 
L 4031 1441 
L 1416 1441 
Q 1456 1047 1700 850 
Q 1944 653 2381 653 
Q 2734 653 3104 758 
Q 3475 863 3866 1075 
L 3866 213 
Q 3469 63 3072 -14 
Q 2675 -91 2278 -91 
Q 1328 -91 801 392 
Q 275 875 275 1747 
Q 275 2603 792 3093 
Q 1309 3584 2216 3584 
Q 3041 3584 3536 3087 
Q 4031 2591 4031 1759 
z
M 2881 2131 
Q 2881 2450 2695 2645 
Q 2509 2841 2209 2841 
Q 1884 2841 1681 2658 
Q 1478 2475 1428 2131 
L 2881 2131 
z
" transform="scale(0.015625)"/>
      <path id="DejaVuSans-Bold-77" d="M 225 3500 
L 1313 3500 
L 1900 1088 
L 2491 3500 
L 3425 3500 
L 4013 1113 
L 4603 3500 
L 5691 3500 
L 4769 0 
L 3547 0 
L 2956 2406 
L 2369 0 
L 1147 0 
L 225 3500 
z
" transform="scale(0.015625)"/>
      <path id="DejaVuSans-Bold-6f" d="M 2203 2784 
Q 1831 2784 1636 2517 
Q 1441 2250 1441 1747 
Q 1441 1244 1636 976 
Q 1831 709 2203 709 
Q 2569 709 2762 976 
Q 2956 1244 2956 1747 
Q 2956 2250 2762 2517 
Q 2569 2784 2203 2784 
z
M 2203 3584 
Q 3106 3584 3614 3096 
Q 4122 2609 4122 1747 
Q 4122 884 3614 396 
Q 3106 -91 2203 -91 
Q 1297 -91 786 396 
Q 275 884 275 1747 
Q 275 2609 786 3096 
Q 1297 3584 2203 3584 
z
" transform="scale(0.015625)"/>
      <path id="DejaVuSans-Bold-6b" d="M 538 4863 
L 1656 4863 
L 1656 2216 
L 2944 3500 
L 4244 3500 
L 2534 1894 
L 4378 0 
L 3022 0 
L 1656 1459 
L 1656 0 
L 538 0 
L 538 4863 
z
" transform="scale(0.015625)"/>
      <path id="DejaVuSans-Bold-44" d="M 1791 3756 
L 1791 909 
L 2222 909 
Q 2959 909 3348 1275 
Q 3738 1641 3738 2338 
Q 3738 3031 3350 3393 
Q 2963 3756 2222 3756 
L 1791 3756 
z
M 588 4666 
L 1856 4666 
Q 2919 4666 3439 4514 
Q 3959 4363 4331 4000 
Q 4659 3684 4818 3271 
Q 4978 2859 4978 2338 
Q 4978 1809 4818 1395 
Q 4659 981 4331 666 
Q 3956 303 3431 151 
Q 2906 0 1856 0 
L 588 0 
L 588 4666 
z
" transform="scale(0.015625)"/>
      <path id="DejaVuSans-Bold-73" d="M 3272 3391 
L 3272 2541 
Q 2913 2691 2578 2766 
Q 2244 2841 1947 2841 
Q 1628 2841 1473 2761 
Q 1319 2681 1319 2516 
Q 1319 2381 1436 2309 
Q 1553 2238 1856 2203 
L 2053 2175 
Q 2913 2066 3209 1816 
Q 3506 1566 3506 1031 
Q 3506 472 3093 190 
Q 2681 -91 1863 -91 
Q 1516 -91 1145 -36 
Q 775 19 384 128 
L 384 978 
Q 719 816 1070 734 
Q 1422 653 1784 653 
Q 2113 653 2278 743 
Q 2444 834 2444 1013 
Q 2444 1163 2330 1236 
Q 2216 1309 1875 1350 
L 1678 1375 
Q 931 1469 631 1722 
Q 331 1975 331 2491 
Q 331 3047 712 3315 
Q 1094 3584 1881 3584 
Q 2191 3584 2531 3537 
Q 2872 3491 3272 3391 
z
" transform="scale(0.015625)"/>
      <path id="DejaVuSans-Bold-76" d="M 97 3500 
L 1216 3500 
L 2088 1081 
L 2956 3500 
L 4078 3500 
L 2700 0 
L 1472 0 
L 97 3500 
z
" transform="scale(0.015625)"/>
      <path id="DejaVuSans-Bold-79" d="M 78 3500 
L 1197 3500 
L 2138 1125 
L 2938 3500 
L 4056 3500 
L 2584 -331 
Q 2363 -916 2067 -1148 
Q 1772 -1381 1288 -1381 
L 641 -1381 
L 641 -647 
L 991 -647 
Q 1275 -647 1404 -556 
Q 1534 -466 1606 -231 
L 1638 -134 
L 78 3500 
z
" transform="scale(0.015625)"/>
      <path id="DejaVuSans-Bold-3a" d="M 716 3500 
L 1844 3500 
L 1844 2291 
L 716 2291 
L 716 3500 
z
M 716 1209 
L 1844 1209 
L 1844 0 
L 716 0 
L 716 1209 
z
" transform="scale(0.015625)"/>
      <path id="DejaVuSans-Bold-41" d="M 3419 850 
L 1538 850 
L 1241 0 
L 31 0 
L 1759 4666 
L 3194 4666 
L 4922 0 
L 3713 0 
L 3419 850 
z
M 1838 1716 
L 3116 1716 
L 2478 3572 
L 1838 1716 
z
" transform="scale(0.015625)"/>
      <path id="DejaVuSans-Bold-61" d="M 2106 1575 
Q 1756 1575 1579 1456 
Q 1403 1338 1403 1106 
Q 1403 894 1545 773 
Q 1688 653 1941 653 
Q 2256 653 2472 879 
Q 2688 1106 2688 1447 
L 2688 1575 
L 2106 1575 
z
M 3816 1997 
L 3816 0 
L 2688 0 
L 2688 519 
Q 2463 200 2181 54 
Q 1900 -91 1497 -91 
Q 953 -91 614 226 
Q 275 544 275 1050 
Q 275 1666 698 1953 
Q 1122 2241 2028 2241 
L 2688 2241 
L 2688 2328 
Q 2688 2594 2478 2717 
Q 2269 2841 1825 2841 
Q 1466 2841 1156 2769 
Q 847 2697 581 2553 
L 581 3406 
Q 941 3494 1303 3539 
Q 1666 3584 2028 3584 
Q 2975 3584 3395 3211 
Q 3816 2838 3816 1997 
z
" transform="scale(0.015625)"/>
      <path id="DejaVuSans-Bold-6e" d="M 4056 2131 
L 4056 0 
L 2931 0 
L 2931 347 
L 2931 1631 
Q 2931 2084 2911 2256 
Q 2891 2428 2841 2509 
Q 2775 2619 2662 2680 
Q 2550 2741 2406 2741 
Q 2056 2741 1856 2470 
Q 1656 2200 1656 1722 
L 1656 0 
L 538 0 
L 538 3500 
L 1656 3500 
L 1656 2988 
Q 1909 3294 2193 3439 
Q 2478 3584 2822 3584 
Q 3428 3584 3742 3212 
Q 4056 2841 4056 2131 
z
" transform="scale(0.015625)"/>
      <path id="DejaVuSans-Bold-50" d="M 588 4666 
L 2584 4666 
Q 3475 4666 3951 4270 
Q 4428 3875 4428 3144 
Q 4428 2409 3951 2014 
Q 3475 1619 2584 1619 
L 1791 1619 
L 1791 0 
L 588 0 
L 588 4666 
z
M 1791 3794 
L 1791 2491 
L 2456 2491 
Q 2806 2491 2997 2661 
Q 3188 2831 3188 3144 
Q 3188 3456 2997 3625 
Q 2806 3794 2456 3794 
L 1791 3794 
z
" transform="scale(0.015625)"/>
      <path id="DejaVuSans-Bold-68" d="M 4056 2131 
L 4056 0 
L 2931 0 
L 2931 347 
L 2931 1625 
Q 2931 2084 2911 2256 
Q 2891 2428 2841 2509 
Q 2775 2619 2662 2680 
Q 2550 2741 2406 2741 
Q 2056 2741 1856 2470 
Q 1656 2200 1656 1722 
L 1656 0 
L 538 0 
L 538 4863 
L 1656 4863 
L 1656 2988 
Q 1909 3294 2193 3439 
Q 2478 3584 2822 3584 
Q 3428 3584 3742 3212 
Q 4056 2841 4056 2131 
z
" transform="scale(0.015625)"/>
      <path id="DejaVuSans-Bold-67" d="M 2919 594 
Q 2688 288 2409 144 
Q 2131 0 1766 0 
Q 1125 0 706 504 
Q 288 1009 288 1791 
Q 288 2575 706 3076 
Q 1125 3578 1766 3578 
Q 2131 3578 2409 3434 
Q 2688 3291 2919 2981 
L 2919 3500 
L 4044 3500 
L 4044 353 
Q 4044 -491 3511 -936 
Q 2978 -1381 1966 -1381 
Q 1638 -1381 1331 -1331 
Q 1025 -1281 716 -1178 
L 716 -306 
Q 1009 -475 1290 -558 
Q 1572 -641 1856 -641 
Q 2406 -641 2662 -400 
Q 2919 -159 2919 353 
L 2919 594 
z
M 2181 2772 
Q 1834 2772 1640 2515 
Q 1447 2259 1447 1791 
Q 1447 1309 1634 1061 
Q 1822 813 2181 813 
Q 2531 813 2725 1069 
Q 2919 1325 2919 1791 
Q 2919 2259 2725 2515 
Q 2531 2772 2181 2772 
z
" transform="scale(0.015625)"/>
     </defs>
     <use xlink:href="#DejaVuSans-Bold-43"/>
     <use xlink:href="#DejaVuSans-Bold-69" transform="translate(73.388672 0)"/>
     <use xlink:href="#DejaVuSans-Bold-72" transform="translate(107.666016 0)"/>
     <use xlink:href="#DejaVuSans-Bold-63" transform="translate(156.982422 0)"/>
     <use xlink:href="#DejaVuSans-Bold-75" transform="translate(216.259766 0)"/>
     <use xlink:href="#DejaVuSans-Bold-69" transform="translate(287.451172 0)"/>
     <use xlink:href="#DejaVuSans-Bold-74" transform="translate(321.728516 0)"/>
     <use xlink:href="#DejaVuSans-Bold-20" transform="translate(369.53125 0)"/>
     <use xlink:href="#DejaVuSans-Bold-4e" transform="translate(404.345703 0)"/>
     <use xlink:href="#DejaVuSans-Bold-65" transform="translate(488.037109 0)"/>
     <use xlink:href="#DejaVuSans-Bold-74" transform="translate(555.859375 0)"/>
     <use xlink:href="#DejaVuSans-Bold-77" transform="translate(603.662109 0)"/>
     <use xlink:href="#DejaVuSans-Bold-6f" transform="translate(696.044922 0)"/>
     <use xlink:href="#DejaVuSans-Bold-72" transform="translate(764.746094 0)"/>
     <use xlink:href="#DejaVuSans-Bold-6b" transform="translate(814.0625 0)"/>
     <use xlink:href="#DejaVuSans-Bold-20" transform="translate(880.566406 0)"/>
     <use xlink:href="#DejaVuSans-Bold-44" transform="translate(915.380859 0)"/>
     <use xlink:href="#DejaVuSans-Bold-69" transform="translate(998.388672 0)"/>
     <use xlink:href="#DejaVuSans-Bold-73" transform="translate(1032.666016 0)"/>
     <use xlink:href="#DejaVuSans-Bold-63" transform="translate(1092.1875 0)"/>
     <use xlink:href="#DejaVuSans-Bold-6f" transform="translate(1151.464844 0)"/>
     <use xlink:href="#DejaVuSans-Bold-76" transform="translate(1220.166016 0)"/>
     <use xlink:href="#DejaVuSans-Bold-65" transform="translate(1285.351562 0)"/>
     <use xlink:href="#DejaVuSans-Bold-72" transform="translate(1353.173828 0)"/>
     <use xlink:href="#DejaVuSans-Bold-79" transform="translate(1402.490234 0)"/>
     <use xlink:href="#DejaVuSans-Bold-3a" transform="translate(1467.675781 0)"/>
     <use xlink:href="#DejaVuSans-Bold-20" transform="translate(1507.666016 0)"/>
     <use xlink:href="#DejaVuSans-Bold-41" transform="translate(1542.480469 0)"/>
     <use xlink:href="#DejaVuSans-Bold-63" transform="translate(1619.873047 0)"/>
     <use xlink:href="#DejaVuSans-Bold-74" transform="translate(1679.150391 0)"/>
     <use xlink:href="#DejaVuSans-Bold-69" transform="translate(1726.953125 0)"/>
     <use xlink:href="#DejaVuSans-Bold-76" transform="translate(1761.230469 0)"/>
     <use xlink:href="#DejaVuSans-Bold-61" transform="translate(1826.416016 0)"/>
     <use xlink:href="#DejaVuSans-Bold-74" transform="translate(1893.896484 0)"/>
     <use xlink:href="#DejaVuSans-Bold-69" transform="translate(1941.699219 0)"/>
     <use xlink:href="#DejaVuSans-Bold-6f" transform="translate(1975.976562 0)"/>
     <use xlink:href="#DejaVuSans-Bold-6e" transform="translate(2044.677734 0)"/>
     <use xlink:href="#DejaVuSans-Bold-20" transform="translate(2115.869141 0)"/>
     <use xlink:href="#DejaVuSans-Bold-50" transform="translate(2150.683594 0)"/>
     <use xlink:href="#DejaVuSans-Bold-61" transform="translate(2221.349609 0)"/>
     <use xlink:href="#DejaVuSans-Bold-74" transform="translate(2288.830078 0)"/>
     <use xlink:href="#DejaVuSans-Bold-63" transform="translate(2336.632812 0)"/>
     <use xlink:href="#DejaVuSans-Bold-68" transform="translate(2395.910156 0)"/>
     <use xlink:href="#DejaVuSans-Bold-69" transform="translate(2467.101562 0)"/>
     <use xlink:href="#DejaVuSans-Bold-6e" transform="translate(2501.378906 0)"/>
     <use xlink:href="#DejaVuSans-Bold-67" transform="translate(2572.570312 0)"/>
    </g>
   </g>
  </g>
 </g>
 <defs>
  <clipPath id="p727ff9418c">
   <rect x="7.2" y="25.3575" width="838.08" height="531.6"/>
  </clipPath>
 </defs>
</svg>
