<?xml version="1.0" encoding="utf-8" standalone="no"?>
<!DOCTYPE svg PUBLIC "-//W3C//DTD SVG 1.1//EN"
  "http://www.w3.org/Graphics/SVG/1.1/DTD/svg11.dtd">
<svg xmlns:xlink="http://www.w3.org/1999/xlink" width="713.816937pt" height="625.869375pt" viewBox="0 0 713.816937 625.869375" xmlns="http://www.w3.org/2000/svg" version="1.1">
 <metadata>
  <rdf:RDF xmlns:dc="http://purl.org/dc/elements/1.1/" xmlns:cc="http://creativecommons.org/ns#" xmlns:rdf="http://www.w3.org/1999/02/22-rdf-syntax-ns#">
   <cc:Work>
    <dc:type rdf:resource="http://purl.org/dc/dcmitype/StillImage"/>
    <dc:date>2025-09-16T10:08:25.288554</dc:date>
    <dc:format>image/svg+xml</dc:format>
    <dc:creator>
     <cc:Agent>
      <dc:title>Matplotlib v3.10.3, https://matplotlib.org/</dc:title>
     </cc:Agent>
    </dc:creator>
   </cc:Work>
  </rdf:RDF>
 </metadata>
 <defs>
  <style type="text/css">*{stroke-linejoin: round; stroke-linecap: butt}</style>
 </defs>
 <g id="figure_1">
  <g id="patch_1">
   <path d="M 0 625.869375 
L 713.816937 625.869375 
L 713.816937 0 
L 0 0 
z
" style="fill: #ffffff"/>
  </g>
  <g id="axes_1">
   <g id="patch_2">
    <path d="M 599.515937 320.86 
C 599.515937 283.89343 592.234329 247.286314 578.087836 213.133657 
C 563.941342 178.981 543.205076 147.946985 517.065764 121.807673 
C 490.926452 95.668361 459.892437 74.932096 425.73978 60.785602 
C 391.587123 46.639108 354.980007 39.3575 318.013437 39.3575 
C 281.046868 39.3575 244.439752 46.639108 210.287095 60.785602 
C 176.134438 74.932096 145.100423 95.668361 118.961111 121.807673 
C 92.821799 147.946985 72.085533 178.981 57.939039 213.133657 
C 43.792546 247.286314 36.510938 283.89343 36.510938 320.86 
C 36.510938 357.82657 43.792546 394.433686 57.939039 428.586343 
C 72.085533 462.739 92.821799 493.773015 118.961111 519.912327 
C 145.100423 546.051639 176.134438 566.787904 210.287095 580.934398 
C 244.439752 595.080892 281.046868 602.3625 318.013437 602.3625 
C 354.980007 602.3625 391.587123 595.080892 425.73978 580.934398 
C 459.892437 566.787904 490.926452 546.051639 517.065764 519.912327 
C 543.205076 493.773015 563.941342 462.739 578.087836 428.586343 
C 592.234329 394.433686 599.515937 357.82657 599.515937 320.86 
M 318.013437 320.86 
C 318.013437 320.86 318.013437 320.86 318.013437 320.86 
C 318.013437 320.86 318.013437 320.86 318.013437 320.86 
C 318.013437 320.86 318.013437 320.86 318.013437 320.86 
C 318.013437 320.86 318.013437 320.86 318.013437 320.86 
C 318.013437 320.86 318.013437 320.86 318.013437 320.86 
C 318.013437 320.86 318.013437 320.86 318.013437 320.86 
C 318.013437 320.86 318.013437 320.86 318.013437 320.86 
C 318.013437 320.86 318.013437 320.86 318.013437 320.86 
C 318.013437 320.86 318.013437 320.86 318.013437 320.86 
C 318.013437 320.86 318.013437 320.86 318.013437 320.86 
C 318.013437 320.86 318.013437 320.86 318.013437 320.86 
C 318.013437 320.86 318.013437 320.86 318.013437 320.86 
C 318.013437 320.86 318.013437 320.86 318.013437 320.86 
C 318.013437 320.86 318.013437 320.86 318.013437 320.86 
C 318.013437 320.86 318.013437 320.86 318.013437 320.86 
C 318.013437 320.86 318.013437 320.86 318.013437 320.86 
z
" style="fill: #ffffff"/>
   </g>
   <g id="matplotlib.axis_1">
    <g id="xtick_1">
     <g id="line2d_1">
      <path d="M 318.013437 320.86 
L 599.515937 320.86 
" clip-path="url(#pddf008b7b3)" style="fill: none; stroke: #cccccc; stroke-width: 0.8; stroke-linecap: round"/>
     </g>
     <g id="text_1">
      <!-- Effect Size -->
      <g style="fill: #262626" transform="translate(578.433437 324.17125) scale(0.12 -0.12)">
       <defs>
        <path id="DejaVuSans-45" d="M 628 4666 
L 3578 4666 
L 3578 4134 
L 1259 4134 
L 1259 2753 
L 3481 2753 
L 3481 2222 
L 1259 2222 
L 1259 531 
L 3634 531 
L 3634 0 
L 628 0 
L 628 4666 
z
" transform="scale(0.015625)"/>
        <path id="DejaVuSans-66" d="M 2375 4863 
L 2375 4384 
L 1825 4384 
Q 1516 4384 1395 4259 
Q 1275 4134 1275 3809 
L 1275 3500 
L 2222 3500 
L 2222 3053 
L 1275 3053 
L 1275 0 
L 697 0 
L 697 3053 
L 147 3053 
L 147 3500 
L 697 3500 
L 697 3744 
Q 697 4328 969 4595 
Q 1241 4863 1831 4863 
L 2375 4863 
z
" transform="scale(0.015625)"/>
        <path id="DejaVuSans-65" d="M 3597 1894 
L 3597 1613 
L 953 1613 
Q 991 1019 1311 708 
Q 1631 397 2203 397 
Q 2534 397 2845 478 
Q 3156 559 3463 722 
L 3463 178 
Q 3153 47 2828 -22 
Q 2503 -91 2169 -91 
Q 1331 -91 842 396 
Q 353 884 353 1716 
Q 353 2575 817 3079 
Q 1281 3584 2069 3584 
Q 2775 3584 3186 3129 
Q 3597 2675 3597 1894 
z
M 3022 2063 
Q 3016 2534 2758 2815 
Q 2500 3097 2075 3097 
Q 1594 3097 1305 2825 
Q 1016 2553 972 2059 
L 3022 2063 
z
" transform="scale(0.015625)"/>
        <path id="DejaVuSans-63" d="M 3122 3366 
L 3122 2828 
Q 2878 2963 2633 3030 
Q 2388 3097 2138 3097 
Q 1578 3097 1268 2742 
Q 959 2388 959 1747 
Q 959 1106 1268 751 
Q 1578 397 2138 397 
Q 2388 397 2633 464 
Q 2878 531 3122 666 
L 3122 134 
Q 2881 22 2623 -34 
Q 2366 -91 2075 -91 
Q 1284 -91 818 406 
Q 353 903 353 1747 
Q 353 2603 823 3093 
Q 1294 3584 2113 3584 
Q 2378 3584 2631 3529 
Q 2884 3475 3122 3366 
z
" transform="scale(0.015625)"/>
        <path id="DejaVuSans-74" d="M 1172 4494 
L 1172 3500 
L 2356 3500 
L 2356 3053 
L 1172 3053 
L 1172 1153 
Q 1172 725 1289 603 
Q 1406 481 1766 481 
L 2356 481 
L 2356 0 
L 1766 0 
Q 1100 0 847 248 
Q 594 497 594 1153 
L 594 3053 
L 172 3053 
L 172 3500 
L 594 3500 
L 594 4494 
L 1172 4494 
z
" transform="scale(0.015625)"/>
        <path id="DejaVuSans-20" transform="scale(0.015625)"/>
        <path id="DejaVuSans-53" d="M 3425 4513 
L 3425 3897 
Q 3066 4069 2747 4153 
Q 2428 4238 2131 4238 
Q 1616 4238 1336 4038 
Q 1056 3838 1056 3469 
Q 1056 3159 1242 3001 
Q 1428 2844 1947 2747 
L 2328 2669 
Q 3034 2534 3370 2195 
Q 3706 1856 3706 1288 
Q 3706 609 3251 259 
Q 2797 -91 1919 -91 
Q 1588 -91 1214 -16 
Q 841 59 441 206 
L 441 856 
Q 825 641 1194 531 
Q 1563 422 1919 422 
Q 2459 422 2753 634 
Q 3047 847 3047 1241 
Q 3047 1584 2836 1778 
Q 2625 1972 2144 2069 
L 1759 2144 
Q 1053 2284 737 2584 
Q 422 2884 422 3419 
Q 422 4038 858 4394 
Q 1294 4750 2059 4750 
Q 2388 4750 2728 4690 
Q 3069 4631 3425 4513 
z
" transform="scale(0.015625)"/>
        <path id="DejaVuSans-69" d="M 603 3500 
L 1178 3500 
L 1178 0 
L 603 0 
L 603 3500 
z
M 603 4863 
L 1178 4863 
L 1178 4134 
L 603 4134 
L 603 4863 
z
" transform="scale(0.015625)"/>
        <path id="DejaVuSans-7a" d="M 353 3500 
L 3084 3500 
L 3084 2975 
L 922 459 
L 3084 459 
L 3084 0 
L 275 0 
L 275 525 
L 2438 3041 
L 353 3041 
L 353 3500 
z
" transform="scale(0.015625)"/>
       </defs>
       <use xlink:href="#DejaVuSans-45"/>
       <use xlink:href="#DejaVuSans-66" transform="translate(63.183594 0)"/>
       <use xlink:href="#DejaVuSans-66" transform="translate(98.388672 0)"/>
       <use xlink:href="#DejaVuSans-65" transform="translate(133.59375 0)"/>
       <use xlink:href="#DejaVuSans-63" transform="translate(195.117188 0)"/>
       <use xlink:href="#DejaVuSans-74" transform="translate(250.097656 0)"/>
       <use xlink:href="#DejaVuSans-20" transform="translate(289.306641 0)"/>
       <use xlink:href="#DejaVuSans-53" transform="translate(321.09375 0)"/>
       <use xlink:href="#DejaVuSans-69" transform="translate(384.570312 0)"/>
       <use xlink:href="#DejaVuSans-7a" transform="translate(412.353516 0)"/>
       <use xlink:href="#DejaVuSans-65" transform="translate(464.84375 0)"/>
      </g>
     </g>
    </g>
    <g id="xtick_2">
     <g id="line2d_2">
      <path d="M 318.013437 320.86 
L 318.013437 39.3575 
" clip-path="url(#pddf008b7b3)" style="fill: none; stroke: #cccccc; stroke-width: 0.8; stroke-linecap: round"/>
     </g>
     <g id="text_2">
      <!-- Max Effect -->
      <g style="fill: #262626" transform="translate(286.342812 32.16875) scale(0.12 -0.12)">
       <defs>
        <path id="DejaVuSans-4d" d="M 628 4666 
L 1569 4666 
L 2759 1491 
L 3956 4666 
L 4897 4666 
L 4897 0 
L 4281 0 
L 4281 4097 
L 3078 897 
L 2444 897 
L 1241 4097 
L 1241 0 
L 628 0 
L 628 4666 
z
" transform="scale(0.015625)"/>
        <path id="DejaVuSans-61" d="M 2194 1759 
Q 1497 1759 1228 1600 
Q 959 1441 959 1056 
Q 959 750 1161 570 
Q 1363 391 1709 391 
Q 2188 391 2477 730 
Q 2766 1069 2766 1631 
L 2766 1759 
L 2194 1759 
z
M 3341 1997 
L 3341 0 
L 2766 0 
L 2766 531 
Q 2569 213 2275 61 
Q 1981 -91 1556 -91 
Q 1019 -91 701 211 
Q 384 513 384 1019 
Q 384 1609 779 1909 
Q 1175 2209 1959 2209 
L 2766 2209 
L 2766 2266 
Q 2766 2663 2505 2880 
Q 2244 3097 1772 3097 
Q 1472 3097 1187 3025 
Q 903 2953 641 2809 
L 641 3341 
Q 956 3463 1253 3523 
Q 1550 3584 1831 3584 
Q 2591 3584 2966 3190 
Q 3341 2797 3341 1997 
z
" transform="scale(0.015625)"/>
        <path id="DejaVuSans-78" d="M 3513 3500 
L 2247 1797 
L 3578 0 
L 2900 0 
L 1881 1375 
L 863 0 
L 184 0 
L 1544 1831 
L 300 3500 
L 978 3500 
L 1906 2253 
L 2834 3500 
L 3513 3500 
z
" transform="scale(0.015625)"/>
       </defs>
       <use xlink:href="#DejaVuSans-4d"/>
       <use xlink:href="#DejaVuSans-61" transform="translate(86.279297 0)"/>
       <use xlink:href="#DejaVuSans-78" transform="translate(147.558594 0)"/>
       <use xlink:href="#DejaVuSans-20" transform="translate(206.738281 0)"/>
       <use xlink:href="#DejaVuSans-45" transform="translate(238.525391 0)"/>
       <use xlink:href="#DejaVuSans-66" transform="translate(301.708984 0)"/>
       <use xlink:href="#DejaVuSans-66" transform="translate(336.914062 0)"/>
       <use xlink:href="#DejaVuSans-65" transform="translate(372.119141 0)"/>
       <use xlink:href="#DejaVuSans-63" transform="translate(433.642578 0)"/>
       <use xlink:href="#DejaVuSans-74" transform="translate(488.623047 0)"/>
      </g>
     </g>
    </g>
    <g id="xtick_3">
     <g id="line2d_3">
      <path d="M 318.013437 320.86 
L 36.510938 320.86 
" clip-path="url(#pddf008b7b3)" style="fill: none; stroke: #cccccc; stroke-width: 0.8; stroke-linecap: round"/>
     </g>
     <g id="text_3">
      <!-- Speed -->
      <g style="fill: #262626" transform="translate(7.2 324.17125) scale(0.12 -0.12)">
       <defs>
        <path id="DejaVuSans-70" d="M 1159 525 
L 1159 -1331 
L 581 -1331 
L 581 3500 
L 1159 3500 
L 1159 2969 
Q 1341 3281 1617 3432 
Q 1894 3584 2278 3584 
Q 2916 3584 3314 3078 
Q 3713 2572 3713 1747 
Q 3713 922 3314 415 
Q 2916 -91 2278 -91 
Q 1894 -91 1617 61 
Q 1341 213 1159 525 
z
M 3116 1747 
Q 3116 2381 2855 2742 
Q 2594 3103 2138 3103 
Q 1681 3103 1420 2742 
Q 1159 2381 1159 1747 
Q 1159 1113 1420 752 
Q 1681 391 2138 391 
Q 2594 391 2855 752 
Q 3116 1113 3116 1747 
z
" transform="scale(0.015625)"/>
        <path id="DejaVuSans-64" d="M 2906 2969 
L 2906 4863 
L 3481 4863 
L 3481 0 
L 2906 0 
L 2906 525 
Q 2725 213 2448 61 
Q 2172 -91 1784 -91 
Q 1150 -91 751 415 
Q 353 922 353 1747 
Q 353 2572 751 3078 
Q 1150 3584 1784 3584 
Q 2172 3584 2448 3432 
Q 2725 3281 2906 2969 
z
M 947 1747 
Q 947 1113 1208 752 
Q 1469 391 1925 391 
Q 2381 391 2643 752 
Q 2906 1113 2906 1747 
Q 2906 2381 2643 2742 
Q 2381 3103 1925 3103 
Q 1469 3103 1208 2742 
Q 947 2381 947 1747 
z
" transform="scale(0.015625)"/>
       </defs>
       <use xlink:href="#DejaVuSans-53"/>
       <use xlink:href="#DejaVuSans-70" transform="translate(63.476562 0)"/>
       <use xlink:href="#DejaVuSans-65" transform="translate(126.953125 0)"/>
       <use xlink:href="#DejaVuSans-65" transform="translate(188.476562 0)"/>
       <use xlink:href="#DejaVuSans-64" transform="translate(250 0)"/>
      </g>
     </g>
    </g>
    <g id="xtick_4">
     <g id="line2d_4">
      <path d="M 318.013437 320.86 
L 318.013437 602.3625 
" clip-path="url(#pddf008b7b3)" style="fill: none; stroke: #cccccc; stroke-width: 0.8; stroke-linecap: round"/>
     </g>
     <g id="text_4">
      <!-- Success Rate -->
      <g style="fill: #262626" transform="translate(278.19875 616.17375) scale(0.12 -0.12)">
       <defs>
        <path id="DejaVuSans-75" d="M 544 1381 
L 544 3500 
L 1119 3500 
L 1119 1403 
Q 1119 906 1312 657 
Q 1506 409 1894 409 
Q 2359 409 2629 706 
Q 2900 1003 2900 1516 
L 2900 3500 
L 3475 3500 
L 3475 0 
L 2900 0 
L 2900 538 
Q 2691 219 2414 64 
Q 2138 -91 1772 -91 
Q 1169 -91 856 284 
Q 544 659 544 1381 
z
M 1991 3584 
L 1991 3584 
z
" transform="scale(0.015625)"/>
        <path id="DejaVuSans-73" d="M 2834 3397 
L 2834 2853 
Q 2591 2978 2328 3040 
Q 2066 3103 1784 3103 
Q 1356 3103 1142 2972 
Q 928 2841 928 2578 
Q 928 2378 1081 2264 
Q 1234 2150 1697 2047 
L 1894 2003 
Q 2506 1872 2764 1633 
Q 3022 1394 3022 966 
Q 3022 478 2636 193 
Q 2250 -91 1575 -91 
Q 1294 -91 989 -36 
Q 684 19 347 128 
L 347 722 
Q 666 556 975 473 
Q 1284 391 1588 391 
Q 1994 391 2212 530 
Q 2431 669 2431 922 
Q 2431 1156 2273 1281 
Q 2116 1406 1581 1522 
L 1381 1569 
Q 847 1681 609 1914 
Q 372 2147 372 2553 
Q 372 3047 722 3315 
Q 1072 3584 1716 3584 
Q 2034 3584 2315 3537 
Q 2597 3491 2834 3397 
z
" transform="scale(0.015625)"/>
        <path id="DejaVuSans-52" d="M 2841 2188 
Q 3044 2119 3236 1894 
Q 3428 1669 3622 1275 
L 4263 0 
L 3584 0 
L 2988 1197 
Q 2756 1666 2539 1819 
Q 2322 1972 1947 1972 
L 1259 1972 
L 1259 0 
L 628 0 
L 628 4666 
L 2053 4666 
Q 2853 4666 3247 4331 
Q 3641 3997 3641 3322 
Q 3641 2881 3436 2590 
Q 3231 2300 2841 2188 
z
M 1259 4147 
L 1259 2491 
L 2053 2491 
Q 2509 2491 2742 2702 
Q 2975 2913 2975 3322 
Q 2975 3731 2742 3939 
Q 2509 4147 2053 4147 
L 1259 4147 
z
" transform="scale(0.015625)"/>
       </defs>
       <use xlink:href="#DejaVuSans-53"/>
       <use xlink:href="#DejaVuSans-75" transform="translate(63.476562 0)"/>
       <use xlink:href="#DejaVuSans-63" transform="translate(126.855469 0)"/>
       <use xlink:href="#DejaVuSans-63" transform="translate(181.835938 0)"/>
       <use xlink:href="#DejaVuSans-65" transform="translate(236.816406 0)"/>
       <use xlink:href="#DejaVuSans-73" transform="translate(298.339844 0)"/>
       <use xlink:href="#DejaVuSans-73" transform="translate(350.439453 0)"/>
       <use xlink:href="#DejaVuSans-20" transform="translate(402.539062 0)"/>
       <use xlink:href="#DejaVuSans-52" transform="translate(434.326172 0)"/>
       <use xlink:href="#DejaVuSans-61" transform="translate(501.558594 0)"/>
       <use xlink:href="#DejaVuSans-74" transform="translate(562.837891 0)"/>
       <use xlink:href="#DejaVuSans-65" transform="translate(602.046875 0)"/>
      </g>
     </g>
    </g>
   </g>
   <g id="matplotlib.axis_2">
    <g id="ytick_1">
     <g id="line2d_5">
      <path d="M 374.313937 320.86 
C 374.313937 313.466686 372.857616 306.145263 370.028317 299.314731 
C 367.199018 292.4842 363.051765 286.277397 357.823903 281.049535 
C 352.59604 275.821672 346.389237 271.674419 339.558706 268.84512 
C 332.728175 266.015822 325.406751 264.5595 318.013437 264.5595 
C 310.620124 264.5595 303.2987 266.015822 296.468169 268.84512 
C 289.637638 271.674419 283.430835 275.821672 278.202972 281.049535 
C 272.97511 286.277397 268.827857 292.4842 265.998558 299.314731 
C 263.169259 306.145263 261.712937 313.466686 261.712937 320.86 
C 261.712937 328.253314 263.169259 335.574737 265.998558 342.405269 
C 268.827857 349.2358 272.97511 355.442603 278.202972 360.670465 
C 283.430835 365.898328 289.637638 370.045581 296.468169 372.87488 
C 303.2987 375.704178 310.620124 377.1605 318.013437 377.1605 
C 325.406751 377.1605 332.728175 375.704178 339.558706 372.87488 
C 346.389237 370.045581 352.59604 365.898328 357.823903 360.670465 
C 363.051765 355.442603 367.199018 349.2358 370.028317 342.405269 
C 372.857616 335.574737 374.313937 328.253314 374.313937 320.86 
" clip-path="url(#pddf008b7b3)" style="fill: none; stroke: #cccccc; stroke-width: 0.8; stroke-linecap: round"/>
     </g>
     <g id="text_5">
      <!-- 0.2 -->
      <g style="fill: #262626" transform="translate(370.028317 296.819106) scale(0.12 -0.12)">
       <defs>
        <path id="DejaVuSans-30" d="M 2034 4250 
Q 1547 4250 1301 3770 
Q 1056 3291 1056 2328 
Q 1056 1369 1301 889 
Q 1547 409 2034 409 
Q 2525 409 2770 889 
Q 3016 1369 3016 2328 
Q 3016 3291 2770 3770 
Q 2525 4250 2034 4250 
z
M 2034 4750 
Q 2819 4750 3233 4129 
Q 3647 3509 3647 2328 
Q 3647 1150 3233 529 
Q 2819 -91 2034 -91 
Q 1250 -91 836 529 
Q 422 1150 422 2328 
Q 422 3509 836 4129 
Q 1250 4750 2034 4750 
z
" transform="scale(0.015625)"/>
        <path id="DejaVuSans-2e" d="M 684 794 
L 1344 794 
L 1344 0 
L 684 0 
L 684 794 
z
" transform="scale(0.015625)"/>
        <path id="DejaVuSans-32" d="M 1228 531 
L 3431 531 
L 3431 0 
L 469 0 
L 469 531 
Q 828 903 1448 1529 
Q 2069 2156 2228 2338 
Q 2531 2678 2651 2914 
Q 2772 3150 2772 3378 
Q 2772 3750 2511 3984 
Q 2250 4219 1831 4219 
Q 1534 4219 1204 4116 
Q 875 4013 500 3803 
L 500 4441 
Q 881 4594 1212 4672 
Q 1544 4750 1819 4750 
Q 2544 4750 2975 4387 
Q 3406 4025 3406 3419 
Q 3406 3131 3298 2873 
Q 3191 2616 2906 2266 
Q 2828 2175 2409 1742 
Q 1991 1309 1228 531 
z
" transform="scale(0.015625)"/>
       </defs>
       <use xlink:href="#DejaVuSans-30"/>
       <use xlink:href="#DejaVuSans-2e" transform="translate(63.623047 0)"/>
       <use xlink:href="#DejaVuSans-32" transform="translate(95.410156 0)"/>
      </g>
     </g>
    </g>
    <g id="ytick_2">
     <g id="line2d_6">
      <path d="M 430.614437 320.86 
C 430.614437 306.073372 427.701794 291.430526 422.043197 277.769463 
C 416.384599 264.1084 408.090093 251.694794 397.634368 241.239069 
C 387.178643 230.783345 374.765037 222.488838 361.103975 216.830241 
C 347.442912 211.171643 332.800065 208.259 318.013437 208.259 
C 303.22681 208.259 288.583963 211.171643 274.9229 216.830241 
C 261.261838 222.488838 248.848232 230.783345 238.392507 241.239069 
C 227.936782 251.694794 219.642276 264.1084 213.983678 277.769463 
C 208.325081 291.430526 205.412437 306.073372 205.412437 320.86 
C 205.412437 335.646628 208.325081 350.289474 213.983678 363.950537 
C 219.642276 377.6116 227.936782 390.025206 238.392507 400.480931 
C 248.848232 410.936655 261.261838 419.231162 274.9229 424.889759 
C 288.583963 430.548357 303.22681 433.461 318.013437 433.461 
C 332.800065 433.461 347.442912 430.548357 361.103975 424.889759 
C 374.765037 419.231162 387.178643 410.936655 397.634368 400.480931 
C 408.090093 390.025206 416.384599 377.6116 422.043197 363.950537 
C 427.701794 350.289474 430.614437 335.646628 430.614437 320.86 
" clip-path="url(#pddf008b7b3)" style="fill: none; stroke: #cccccc; stroke-width: 0.8; stroke-linecap: round"/>
     </g>
     <g id="text_6">
      <!-- 0.4 -->
      <g style="fill: #262626" transform="translate(422.043197 275.273838) scale(0.12 -0.12)">
       <defs>
        <path id="DejaVuSans-34" d="M 2419 4116 
L 825 1625 
L 2419 1625 
L 2419 4116 
z
M 2253 4666 
L 3047 4666 
L 3047 1625 
L 3713 1625 
L 3713 1100 
L 3047 1100 
L 3047 0 
L 2419 0 
L 2419 1100 
L 313 1100 
L 313 1709 
L 2253 4666 
z
" transform="scale(0.015625)"/>
       </defs>
       <use xlink:href="#DejaVuSans-30"/>
       <use xlink:href="#DejaVuSans-2e" transform="translate(63.623047 0)"/>
       <use xlink:href="#DejaVuSans-34" transform="translate(95.410156 0)"/>
      </g>
     </g>
    </g>
    <g id="ytick_3">
     <g id="line2d_7">
      <path d="M 486.914937 320.86 
C 486.914937 298.680058 482.545973 276.715788 474.058076 256.224194 
C 465.57018 235.7326 453.128421 217.112191 437.444834 201.428604 
C 421.761246 185.745017 403.140837 173.303257 382.649243 164.815361 
C 362.157649 156.327465 340.193379 151.9585 318.013437 151.9585 
C 295.833496 151.9585 273.869226 156.327465 253.377632 164.815361 
C 232.886038 173.303257 214.265629 185.745017 198.582041 201.428604 
C 182.898454 217.112191 170.456695 235.7326 161.968799 256.224194 
C 153.480902 276.715788 149.111937 298.680058 149.111937 320.86 
C 149.111937 343.039942 153.480902 365.004212 161.968799 385.495806 
C 170.456695 405.9874 182.898454 424.607809 198.582041 440.291396 
C 214.265629 455.974983 232.886038 468.416743 253.377632 476.904639 
C 273.869226 485.392535 295.833496 489.7615 318.013437 489.7615 
C 340.193379 489.7615 362.157649 485.392535 382.649243 476.904639 
C 403.140837 468.416743 421.761246 455.974983 437.444834 440.291396 
C 453.128421 424.607809 465.57018 405.9874 474.058076 385.495806 
C 482.545973 365.004212 486.914937 343.039942 486.914937 320.86 
" clip-path="url(#pddf008b7b3)" style="fill: none; stroke: #cccccc; stroke-width: 0.8; stroke-linecap: round"/>
     </g>
     <g id="text_7">
      <!-- 0.6 -->
      <g style="fill: #262626" transform="translate(474.058076 253.728569) scale(0.12 -0.12)">
       <defs>
        <path id="DejaVuSans-36" d="M 2113 2584 
Q 1688 2584 1439 2293 
Q 1191 2003 1191 1497 
Q 1191 994 1439 701 
Q 1688 409 2113 409 
Q 2538 409 2786 701 
Q 3034 994 3034 1497 
Q 3034 2003 2786 2293 
Q 2538 2584 2113 2584 
z
M 3366 4563 
L 3366 3988 
Q 3128 4100 2886 4159 
Q 2644 4219 2406 4219 
Q 1781 4219 1451 3797 
Q 1122 3375 1075 2522 
Q 1259 2794 1537 2939 
Q 1816 3084 2150 3084 
Q 2853 3084 3261 2657 
Q 3669 2231 3669 1497 
Q 3669 778 3244 343 
Q 2819 -91 2113 -91 
Q 1303 -91 875 529 
Q 447 1150 447 2328 
Q 447 3434 972 4092 
Q 1497 4750 2381 4750 
Q 2619 4750 2861 4703 
Q 3103 4656 3366 4563 
z
" transform="scale(0.015625)"/>
       </defs>
       <use xlink:href="#DejaVuSans-30"/>
       <use xlink:href="#DejaVuSans-2e" transform="translate(63.623047 0)"/>
       <use xlink:href="#DejaVuSans-36" transform="translate(95.410156 0)"/>
      </g>
     </g>
    </g>
    <g id="ytick_4">
     <g id="line2d_8">
      <path d="M 543.215437 320.86 
C 543.215437 291.286744 537.390151 262.001051 526.072956 234.678926 
C 514.755761 207.3568 498.166748 182.529588 477.255299 161.618139 
C 456.343849 140.706689 431.516637 124.117677 404.194512 112.800482 
C 376.872386 101.483287 347.586693 95.658 318.013437 95.658 
C 288.440182 95.658 259.154489 101.483287 231.832363 112.800482 
C 204.510238 124.117677 179.683026 140.706689 158.771576 161.618139 
C 137.860127 182.529588 121.271114 207.3568 109.953919 234.678926 
C 98.636724 262.001051 92.811437 291.286744 92.811437 320.86 
C 92.811437 350.433256 98.636724 379.718949 109.953919 407.041074 
C 121.271114 434.3632 137.860127 459.190412 158.771576 480.101861 
C 179.683026 501.013311 204.510238 517.602323 231.832363 528.919518 
C 259.154489 540.236713 288.440182 546.062 318.013437 546.062 
C 347.586693 546.062 376.872386 540.236713 404.194512 528.919518 
C 431.516637 517.602323 456.343849 501.013311 477.255299 480.101861 
C 498.166748 459.190412 514.755761 434.3632 526.072956 407.041074 
C 537.390151 379.718949 543.215437 350.433256 543.215437 320.86 
" clip-path="url(#pddf008b7b3)" style="fill: none; stroke: #cccccc; stroke-width: 0.8; stroke-linecap: round"/>
     </g>
     <g id="text_8">
      <!-- 0.8 -->
      <g style="fill: #262626" transform="translate(526.072956 232.183301) scale(0.12 -0.12)">
       <defs>
        <path id="DejaVuSans-38" d="M 2034 2216 
Q 1584 2216 1326 1975 
Q 1069 1734 1069 1313 
Q 1069 891 1326 650 
Q 1584 409 2034 409 
Q 2484 409 2743 651 
Q 3003 894 3003 1313 
Q 3003 1734 2745 1975 
Q 2488 2216 2034 2216 
z
M 1403 2484 
Q 997 2584 770 2862 
Q 544 3141 544 3541 
Q 544 4100 942 4425 
Q 1341 4750 2034 4750 
Q 2731 4750 3128 4425 
Q 3525 4100 3525 3541 
Q 3525 3141 3298 2862 
Q 3072 2584 2669 2484 
Q 3125 2378 3379 2068 
Q 3634 1759 3634 1313 
Q 3634 634 3220 271 
Q 2806 -91 2034 -91 
Q 1263 -91 848 271 
Q 434 634 434 1313 
Q 434 1759 690 2068 
Q 947 2378 1403 2484 
z
M 1172 3481 
Q 1172 3119 1398 2916 
Q 1625 2713 2034 2713 
Q 2441 2713 2670 2916 
Q 2900 3119 2900 3481 
Q 2900 3844 2670 4047 
Q 2441 4250 2034 4250 
Q 1625 4250 1398 4047 
Q 1172 3844 1172 3481 
z
" transform="scale(0.015625)"/>
       </defs>
       <use xlink:href="#DejaVuSans-30"/>
       <use xlink:href="#DejaVuSans-2e" transform="translate(63.623047 0)"/>
       <use xlink:href="#DejaVuSans-38" transform="translate(95.410156 0)"/>
      </g>
     </g>
    </g>
    <g id="ytick_5">
     <g id="line2d_9">
      <path d="M 599.515937 320.86 
C 599.515937 283.89343 592.234329 247.286314 578.087836 213.133657 
C 563.941342 178.981 543.205076 147.946985 517.065764 121.807673 
C 490.926452 95.668361 459.892437 74.932096 425.73978 60.785602 
C 391.587123 46.639108 354.980007 39.3575 318.013437 39.3575 
C 281.046868 39.3575 244.439752 46.639108 210.287095 60.785602 
C 176.134438 74.932096 145.100423 95.668361 118.961111 121.807673 
C 92.821799 147.946985 72.085533 178.981 57.939039 213.133657 
C 43.792546 247.286314 36.510938 283.89343 36.510938 320.86 
C 36.510938 357.82657 43.792546 394.433686 57.939039 428.586343 
C 72.085533 462.739 92.821799 493.773015 118.961111 519.912327 
C 145.100423 546.051639 176.134438 566.787904 210.287095 580.934398 
C 244.439752 595.080892 281.046868 602.3625 318.013437 602.3625 
C 354.980007 602.3625 391.587123 595.080892 425.73978 580.934398 
C 459.892437 566.787904 490.926452 546.051639 517.065764 519.912327 
C 543.205076 493.773015 563.941342 462.739 578.087836 428.586343 
C 592.234329 394.433686 599.515937 357.82657 599.515937 320.86 
" clip-path="url(#pddf008b7b3)" style="fill: none; stroke: #cccccc; stroke-width: 0.8; stroke-linecap: round"/>
     </g>
     <g id="text_9">
      <!-- 1.0 -->
      <g style="fill: #262626" transform="translate(578.087836 210.638032) scale(0.12 -0.12)">
       <defs>
        <path id="DejaVuSans-31" d="M 794 531 
L 1825 531 
L 1825 4091 
L 703 3866 
L 703 4441 
L 1819 4666 
L 2450 4666 
L 2450 531 
L 3481 531 
L 3481 0 
L 794 0 
L 794 531 
z
" transform="scale(0.015625)"/>
       </defs>
       <use xlink:href="#DejaVuSans-31"/>
       <use xlink:href="#DejaVuSans-2e" transform="translate(63.623047 0)"/>
       <use xlink:href="#DejaVuSans-30" transform="translate(95.410156 0)"/>
      </g>
     </g>
    </g>
   </g>
   <g id="patch_3">
    <path d="M 318.304883 320.86 
L 318.013437 319.974085 
L 309.669032 320.86 
L 318.013437 602.3625 
z
" clip-path="url(#pddf008b7b3)" style="fill: #66c2a5; opacity: 0.25; stroke: #66c2a5; stroke-linejoin: miter"/>
   </g>
   <g id="patch_4">
    <path d="M 318.028092 320.86 
L 318.013437 320.808681 
L 316.725469 320.86 
L 318.013437 602.3625 
z
" clip-path="url(#pddf008b7b3)" style="fill: #fc8d62; opacity: 0.25; stroke: #fc8d62; stroke-linejoin: miter"/>
   </g>
   <g id="patch_5">
    <path d="M 318.016321 320.86 
L 318.013437 320.843993 
L 303.572565 320.86 
L 318.013437 602.3625 
z
" clip-path="url(#pddf008b7b3)" style="fill: #8da0cb; opacity: 0.25; stroke: #8da0cb; stroke-linejoin: miter"/>
   </g>
   <g id="patch_6">
    <path d="M 318.013437 320.86 
L 318.013437 320.843993 
L 288.970169 320.86 
L 318.013437 602.3625 
z
" clip-path="url(#pddf008b7b3)" style="fill: #e78ac3; opacity: 0.25; stroke: #e78ac3; stroke-linejoin: miter"/>
   </g>
   <g id="line2d_10">
    <path d="M 318.304883 320.86 
L 318.013437 319.974085 
L 309.669032 320.86 
L 318.013437 602.3625 
L 318.304883 320.86 
" clip-path="url(#pddf008b7b3)" style="fill: none; stroke: #66c2a5; stroke-width: 2; stroke-linecap: round"/>
    <defs>
     <path id="m6521962a82" d="M 0 3 
C 0.795609 3 1.55874 2.683901 2.12132 2.12132 
C 2.683901 1.55874 3 0.795609 3 0 
C 3 -0.795609 2.683901 -1.55874 2.12132 -2.12132 
C 1.55874 -2.683901 0.795609 -3 0 -3 
C -0.795609 -3 -1.55874 -2.683901 -2.12132 -2.12132 
C -2.683901 -1.55874 -3 -0.795609 -3 0 
C -3 0.795609 -2.683901 1.55874 -2.12132 2.12132 
C -1.55874 2.683901 -0.795609 3 0 3 
z
" style="stroke: #66c2a5"/>
    </defs>
    <g clip-path="url(#pddf008b7b3)">
     <use xlink:href="#m6521962a82" x="318.304883" y="320.86" style="fill: #66c2a5; stroke: #66c2a5"/>
     <use xlink:href="#m6521962a82" x="318.013437" y="319.974085" style="fill: #66c2a5; stroke: #66c2a5"/>
     <use xlink:href="#m6521962a82" x="309.669032" y="320.86" style="fill: #66c2a5; stroke: #66c2a5"/>
     <use xlink:href="#m6521962a82" x="318.013437" y="602.3625" style="fill: #66c2a5; stroke: #66c2a5"/>
     <use xlink:href="#m6521962a82" x="318.304883" y="320.86" style="fill: #66c2a5; stroke: #66c2a5"/>
    </g>
   </g>
   <g id="line2d_11">
    <path d="M 318.028092 320.86 
L 318.013437 320.808681 
L 316.725469 320.86 
L 318.013437 602.3625 
L 318.028092 320.86 
" clip-path="url(#pddf008b7b3)" style="fill: none; stroke: #fc8d62; stroke-width: 2; stroke-linecap: round"/>
    <defs>
     <path id="mc74129c08d" d="M 0 3 
C 0.795609 3 1.55874 2.683901 2.12132 2.12132 
C 2.683901 1.55874 3 0.795609 3 0 
C 3 -0.795609 2.683901 -1.55874 2.12132 -2.12132 
C 1.55874 -2.683901 0.795609 -3 0 -3 
C -0.795609 -3 -1.55874 -2.683901 -2.12132 -2.12132 
C -2.683901 -1.55874 -3 -0.795609 -3 0 
C -3 0.795609 -2.683901 1.55874 -2.12132 2.12132 
C -1.55874 2.683901 -0.795609 3 0 3 
z
" style="stroke: #fc8d62"/>
    </defs>
    <g clip-path="url(#pddf008b7b3)">
     <use xlink:href="#mc74129c08d" x="318.028092" y="320.86" style="fill: #fc8d62; stroke: #fc8d62"/>
     <use xlink:href="#mc74129c08d" x="318.013437" y="320.808681" style="fill: #fc8d62; stroke: #fc8d62"/>
     <use xlink:href="#mc74129c08d" x="316.725469" y="320.86" style="fill: #fc8d62; stroke: #fc8d62"/>
     <use xlink:href="#mc74129c08d" x="318.013437" y="602.3625" style="fill: #fc8d62; stroke: #fc8d62"/>
     <use xlink:href="#mc74129c08d" x="318.028092" y="320.86" style="fill: #fc8d62; stroke: #fc8d62"/>
    </g>
   </g>
   <g id="line2d_12">
    <path d="M 318.016321 320.86 
L 318.013437 320.843993 
L 303.572565 320.86 
L 318.013437 602.3625 
L 318.016321 320.86 
" clip-path="url(#pddf008b7b3)" style="fill: none; stroke: #8da0cb; stroke-width: 2; stroke-linecap: round"/>
    <defs>
     <path id="mb27fa54eb0" d="M 0 3 
C 0.795609 3 1.55874 2.683901 2.12132 2.12132 
C 2.683901 1.55874 3 0.795609 3 0 
C 3 -0.795609 2.683901 -1.55874 2.12132 -2.12132 
C 1.55874 -2.683901 0.795609 -3 0 -3 
C -0.795609 -3 -1.55874 -2.683901 -2.12132 -2.12132 
C -2.683901 -1.55874 -3 -0.795609 -3 0 
C -3 0.795609 -2.683901 1.55874 -2.12132 2.12132 
C -1.55874 2.683901 -0.795609 3 0 3 
z
" style="stroke: #8da0cb"/>
    </defs>
    <g clip-path="url(#pddf008b7b3)">
     <use xlink:href="#mb27fa54eb0" x="318.016321" y="320.86" style="fill: #8da0cb; stroke: #8da0cb"/>
     <use xlink:href="#mb27fa54eb0" x="318.013437" y="320.843993" style="fill: #8da0cb; stroke: #8da0cb"/>
     <use xlink:href="#mb27fa54eb0" x="303.572565" y="320.86" style="fill: #8da0cb; stroke: #8da0cb"/>
     <use xlink:href="#mb27fa54eb0" x="318.013437" y="602.3625" style="fill: #8da0cb; stroke: #8da0cb"/>
     <use xlink:href="#mb27fa54eb0" x="318.016321" y="320.86" style="fill: #8da0cb; stroke: #8da0cb"/>
    </g>
   </g>
   <g id="line2d_13">
    <path d="M 318.013437 320.86 
L 318.013437 320.843993 
L 288.970169 320.86 
L 318.013437 602.3625 
L 318.013437 320.86 
" clip-path="url(#pddf008b7b3)" style="fill: none; stroke: #e78ac3; stroke-width: 2; stroke-linecap: round"/>
    <defs>
     <path id="made6e7854c" d="M 0 3 
C 0.795609 3 1.55874 2.683901 2.12132 2.12132 
C 2.683901 1.55874 3 0.795609 3 0 
C 3 -0.795609 2.683901 -1.55874 2.12132 -2.12132 
C 1.55874 -2.683901 0.795609 -3 0 -3 
C -0.795609 -3 -1.55874 -2.683901 -2.12132 -2.12132 
C -2.683901 -1.55874 -3 -0.795609 -3 0 
C -3 0.795609 -2.683901 1.55874 -2.12132 2.12132 
C -1.55874 2.683901 -0.795609 3 0 3 
z
" style="stroke: #e78ac3"/>
    </defs>
    <g clip-path="url(#pddf008b7b3)">
     <use xlink:href="#made6e7854c" x="318.013437" y="320.86" style="fill: #e78ac3; stroke: #e78ac3"/>
     <use xlink:href="#made6e7854c" x="318.013437" y="320.843993" style="fill: #e78ac3; stroke: #e78ac3"/>
     <use xlink:href="#made6e7854c" x="288.970169" y="320.86" style="fill: #e78ac3; stroke: #e78ac3"/>
     <use xlink:href="#made6e7854c" x="318.013437" y="602.3625" style="fill: #e78ac3; stroke: #e78ac3"/>
     <use xlink:href="#made6e7854c" x="318.013437" y="320.86" style="fill: #e78ac3; stroke: #e78ac3"/>
    </g>
   </g>
   <g id="patch_7">
    <path d="M 599.515937 320.86 
C 599.515937 283.89343 592.234329 247.286314 578.087836 213.133657 
C 563.941342 178.981 543.205076 147.946985 517.065764 121.807673 
C 490.926452 95.668361 459.892437 74.932096 425.73978 60.785602 
C 391.587123 46.639108 354.980007 39.3575 318.013437 39.3575 
C 281.046868 39.3575 244.439752 46.639108 210.287095 60.785602 
C 176.134438 74.932096 145.100423 95.668361 118.961111 121.807673 
C 92.821799 147.946985 72.085533 178.981 57.939039 213.133657 
C 43.792546 247.286314 36.510938 283.89343 36.510938 320.86 
C 36.510938 357.82657 43.792546 394.433686 57.939039 428.586343 
C 72.085533 462.739 92.821799 493.773015 118.961111 519.912327 
C 145.100423 546.051639 176.134438 566.787904 210.287095 580.934398 
C 244.439752 595.080892 281.046868 602.3625 318.013437 602.3625 
C 354.980007 602.3625 391.587123 595.080892 425.73978 580.934398 
C 459.892437 566.787904 490.926452 546.051639 517.065764 519.912327 
C 543.205076 493.773015 563.941342 462.739 578.087836 428.586343 
C 592.234329 394.433686 599.515937 357.82657 599.515937 320.86 
" style="fill: none; stroke: #cccccc; stroke-linejoin: miter; stroke-linecap: square"/>
   </g>
   <g id="text_10">
    <!-- Method Performance Comparison -->
    <g style="fill: #262626" transform="translate(167.090937 19.3575) scale(0.16 -0.16)">
     <defs>
      <path id="DejaVuSans-Bold-4d" d="M 588 4666 
L 2119 4666 
L 3181 2169 
L 4250 4666 
L 5778 4666 
L 5778 0 
L 4641 0 
L 4641 3413 
L 3566 897 
L 2803 897 
L 1728 3413 
L 1728 0 
L 588 0 
L 588 4666 
z
" transform="scale(0.015625)"/>
      <path id="DejaVuSans-Bold-65" d="M 4031 1759 
L 4031 1441 
L 1416 1441 
Q 1456 1047 1700 850 
Q 1944 653 2381 653 
Q 2734 653 3104 758 
Q 3475 863 3866 1075 
L 3866 213 
Q 3469 63 3072 -14 
Q 2675 -91 2278 -91 
Q 1328 -91 801 392 
Q 275 875 275 1747 
Q 275 2603 792 3093 
Q 1309 3584 2216 3584 
Q 3041 3584 3536 3087 
Q 4031 2591 4031 1759 
z
M 2881 2131 
Q 2881 2450 2695 2645 
Q 2509 2841 2209 2841 
Q 1884 2841 1681 2658 
Q 1478 2475 1428 2131 
L 2881 2131 
z
" transform="scale(0.015625)"/>
      <path id="DejaVuSans-Bold-74" d="M 1759 4494 
L 1759 3500 
L 2913 3500 
L 2913 2700 
L 1759 2700 
L 1759 1216 
Q 1759 972 1856 886 
Q 1953 800 2241 800 
L 2816 800 
L 2816 0 
L 1856 0 
Q 1194 0 917 276 
Q 641 553 641 1216 
L 641 2700 
L 84 2700 
L 84 3500 
L 641 3500 
L 641 4494 
L 1759 4494 
z
" transform="scale(0.015625)"/>
      <path id="DejaVuSans-Bold-68" d="M 4056 2131 
L 4056 0 
L 2931 0 
L 2931 347 
L 2931 1625 
Q 2931 2084 2911 2256 
Q 2891 2428 2841 2509 
Q 2775 2619 2662 2680 
Q 2550 2741 2406 2741 
Q 2056 2741 1856 2470 
Q 1656 2200 1656 1722 
L 1656 0 
L 538 0 
L 538 4863 
L 1656 4863 
L 1656 2988 
Q 1909 3294 2193 3439 
Q 2478 3584 2822 3584 
Q 3428 3584 3742 3212 
Q 4056 2841 4056 2131 
z
" transform="scale(0.015625)"/>
      <path id="DejaVuSans-Bold-6f" d="M 2203 2784 
Q 1831 2784 1636 2517 
Q 1441 2250 1441 1747 
Q 1441 1244 1636 976 
Q 1831 709 2203 709 
Q 2569 709 2762 976 
Q 2956 1244 2956 1747 
Q 2956 2250 2762 2517 
Q 2569 2784 2203 2784 
z
M 2203 3584 
Q 3106 3584 3614 3096 
Q 4122 2609 4122 1747 
Q 4122 884 3614 396 
Q 3106 -91 2203 -91 
Q 1297 -91 786 396 
Q 275 884 275 1747 
Q 275 2609 786 3096 
Q 1297 3584 2203 3584 
z
" transform="scale(0.015625)"/>
      <path id="DejaVuSans-Bold-64" d="M 2919 2988 
L 2919 4863 
L 4044 4863 
L 4044 0 
L 2919 0 
L 2919 506 
Q 2688 197 2409 53 
Q 2131 -91 1766 -91 
Q 1119 -91 703 423 
Q 288 938 288 1747 
Q 288 2556 703 3070 
Q 1119 3584 1766 3584 
Q 2128 3584 2408 3439 
Q 2688 3294 2919 2988 
z
M 2181 722 
Q 2541 722 2730 984 
Q 2919 1247 2919 1747 
Q 2919 2247 2730 2509 
Q 2541 2772 2181 2772 
Q 1825 2772 1636 2509 
Q 1447 2247 1447 1747 
Q 1447 1247 1636 984 
Q 1825 722 2181 722 
z
" transform="scale(0.015625)"/>
      <path id="DejaVuSans-Bold-20" transform="scale(0.015625)"/>
      <path id="DejaVuSans-Bold-50" d="M 588 4666 
L 2584 4666 
Q 3475 4666 3951 4270 
Q 4428 3875 4428 3144 
Q 4428 2409 3951 2014 
Q 3475 1619 2584 1619 
L 1791 1619 
L 1791 0 
L 588 0 
L 588 4666 
z
M 1791 3794 
L 1791 2491 
L 2456 2491 
Q 2806 2491 2997 2661 
Q 3188 2831 3188 3144 
Q 3188 3456 2997 3625 
Q 2806 3794 2456 3794 
L 1791 3794 
z
" transform="scale(0.015625)"/>
      <path id="DejaVuSans-Bold-72" d="M 3138 2547 
Q 2991 2616 2845 2648 
Q 2700 2681 2553 2681 
Q 2122 2681 1889 2404 
Q 1656 2128 1656 1613 
L 1656 0 
L 538 0 
L 538 3500 
L 1656 3500 
L 1656 2925 
Q 1872 3269 2151 3426 
Q 2431 3584 2822 3584 
Q 2878 3584 2943 3579 
Q 3009 3575 3134 3559 
L 3138 2547 
z
" transform="scale(0.015625)"/>
      <path id="DejaVuSans-Bold-66" d="M 2841 4863 
L 2841 4128 
L 2222 4128 
Q 1984 4128 1890 4042 
Q 1797 3956 1797 3744 
L 1797 3500 
L 2753 3500 
L 2753 2700 
L 1797 2700 
L 1797 0 
L 678 0 
L 678 2700 
L 122 2700 
L 122 3500 
L 678 3500 
L 678 3744 
Q 678 4316 997 4589 
Q 1316 4863 1984 4863 
L 2841 4863 
z
" transform="scale(0.015625)"/>
      <path id="DejaVuSans-Bold-6d" d="M 3781 2919 
Q 3994 3244 4286 3414 
Q 4578 3584 4928 3584 
Q 5531 3584 5847 3212 
Q 6163 2841 6163 2131 
L 6163 0 
L 5038 0 
L 5038 1825 
Q 5041 1866 5042 1909 
Q 5044 1953 5044 2034 
Q 5044 2406 4934 2573 
Q 4825 2741 4581 2741 
Q 4263 2741 4089 2478 
Q 3916 2216 3909 1719 
L 3909 0 
L 2784 0 
L 2784 1825 
Q 2784 2406 2684 2573 
Q 2584 2741 2328 2741 
Q 2006 2741 1831 2477 
Q 1656 2213 1656 1722 
L 1656 0 
L 531 0 
L 531 3500 
L 1656 3500 
L 1656 2988 
Q 1863 3284 2130 3434 
Q 2397 3584 2719 3584 
Q 3081 3584 3359 3409 
Q 3638 3234 3781 2919 
z
" transform="scale(0.015625)"/>
      <path id="DejaVuSans-Bold-61" d="M 2106 1575 
Q 1756 1575 1579 1456 
Q 1403 1338 1403 1106 
Q 1403 894 1545 773 
Q 1688 653 1941 653 
Q 2256 653 2472 879 
Q 2688 1106 2688 1447 
L 2688 1575 
L 2106 1575 
z
M 3816 1997 
L 3816 0 
L 2688 0 
L 2688 519 
Q 2463 200 2181 54 
Q 1900 -91 1497 -91 
Q 953 -91 614 226 
Q 275 544 275 1050 
Q 275 1666 698 1953 
Q 1122 2241 2028 2241 
L 2688 2241 
L 2688 2328 
Q 2688 2594 2478 2717 
Q 2269 2841 1825 2841 
Q 1466 2841 1156 2769 
Q 847 2697 581 2553 
L 581 3406 
Q 941 3494 1303 3539 
Q 1666 3584 2028 3584 
Q 2975 3584 3395 3211 
Q 3816 2838 3816 1997 
z
" transform="scale(0.015625)"/>
      <path id="DejaVuSans-Bold-6e" d="M 4056 2131 
L 4056 0 
L 2931 0 
L 2931 347 
L 2931 1631 
Q 2931 2084 2911 2256 
Q 2891 2428 2841 2509 
Q 2775 2619 2662 2680 
Q 2550 2741 2406 2741 
Q 2056 2741 1856 2470 
Q 1656 2200 1656 1722 
L 1656 0 
L 538 0 
L 538 3500 
L 1656 3500 
L 1656 2988 
Q 1909 3294 2193 3439 
Q 2478 3584 2822 3584 
Q 3428 3584 3742 3212 
Q 4056 2841 4056 2131 
z
" transform="scale(0.015625)"/>
      <path id="DejaVuSans-Bold-63" d="M 3366 3391 
L 3366 2478 
Q 3138 2634 2908 2709 
Q 2678 2784 2431 2784 
Q 1963 2784 1702 2511 
Q 1441 2238 1441 1747 
Q 1441 1256 1702 982 
Q 1963 709 2431 709 
Q 2694 709 2930 787 
Q 3166 866 3366 1019 
L 3366 103 
Q 3103 6 2833 -42 
Q 2563 -91 2291 -91 
Q 1344 -91 809 395 
Q 275 881 275 1747 
Q 275 2613 809 3098 
Q 1344 3584 2291 3584 
Q 2566 3584 2833 3536 
Q 3100 3488 3366 3391 
z
" transform="scale(0.015625)"/>
      <path id="DejaVuSans-Bold-43" d="M 4288 256 
Q 3956 84 3597 -3 
Q 3238 -91 2847 -91 
Q 1681 -91 1000 561 
Q 319 1213 319 2328 
Q 319 3447 1000 4098 
Q 1681 4750 2847 4750 
Q 3238 4750 3597 4662 
Q 3956 4575 4288 4403 
L 4288 3438 
Q 3953 3666 3628 3772 
Q 3303 3878 2944 3878 
Q 2300 3878 1931 3465 
Q 1563 3053 1563 2328 
Q 1563 1606 1931 1193 
Q 2300 781 2944 781 
Q 3303 781 3628 887 
Q 3953 994 4288 1222 
L 4288 256 
z
" transform="scale(0.015625)"/>
      <path id="DejaVuSans-Bold-70" d="M 1656 506 
L 1656 -1331 
L 538 -1331 
L 538 3500 
L 1656 3500 
L 1656 2988 
Q 1888 3294 2169 3439 
Q 2450 3584 2816 3584 
Q 3463 3584 3878 3070 
Q 4294 2556 4294 1747 
Q 4294 938 3878 423 
Q 3463 -91 2816 -91 
Q 2450 -91 2169 54 
Q 1888 200 1656 506 
z
M 2400 2772 
Q 2041 2772 1848 2508 
Q 1656 2244 1656 1747 
Q 1656 1250 1848 986 
Q 2041 722 2400 722 
Q 2759 722 2948 984 
Q 3138 1247 3138 1747 
Q 3138 2247 2948 2509 
Q 2759 2772 2400 2772 
z
" transform="scale(0.015625)"/>
      <path id="DejaVuSans-Bold-69" d="M 538 3500 
L 1656 3500 
L 1656 0 
L 538 0 
L 538 3500 
z
M 538 4863 
L 1656 4863 
L 1656 3950 
L 538 3950 
L 538 4863 
z
" transform="scale(0.015625)"/>
      <path id="DejaVuSans-Bold-73" d="M 3272 3391 
L 3272 2541 
Q 2913 2691 2578 2766 
Q 2244 2841 1947 2841 
Q 1628 2841 1473 2761 
Q 1319 2681 1319 2516 
Q 1319 2381 1436 2309 
Q 1553 2238 1856 2203 
L 2053 2175 
Q 2913 2066 3209 1816 
Q 3506 1566 3506 1031 
Q 3506 472 3093 190 
Q 2681 -91 1863 -91 
Q 1516 -91 1145 -36 
Q 775 19 384 128 
L 384 978 
Q 719 816 1070 734 
Q 1422 653 1784 653 
Q 2113 653 2278 743 
Q 2444 834 2444 1013 
Q 2444 1163 2330 1236 
Q 2216 1309 1875 1350 
L 1678 1375 
Q 931 1469 631 1722 
Q 331 1975 331 2491 
Q 331 3047 712 3315 
Q 1094 3584 1881 3584 
Q 2191 3584 2531 3537 
Q 2872 3491 3272 3391 
z
" transform="scale(0.015625)"/>
     </defs>
     <use xlink:href="#DejaVuSans-Bold-4d"/>
     <use xlink:href="#DejaVuSans-Bold-65" transform="translate(99.511719 0)"/>
     <use xlink:href="#DejaVuSans-Bold-74" transform="translate(167.333984 0)"/>
     <use xlink:href="#DejaVuSans-Bold-68" transform="translate(215.136719 0)"/>
     <use xlink:href="#DejaVuSans-Bold-6f" transform="translate(286.328125 0)"/>
     <use xlink:href="#DejaVuSans-Bold-64" transform="translate(355.029297 0)"/>
     <use xlink:href="#DejaVuSans-Bold-20" transform="translate(426.611328 0)"/>
     <use xlink:href="#DejaVuSans-Bold-50" transform="translate(461.425781 0)"/>
     <use xlink:href="#DejaVuSans-Bold-65" transform="translate(534.716797 0)"/>
     <use xlink:href="#DejaVuSans-Bold-72" transform="translate(602.539062 0)"/>
     <use xlink:href="#DejaVuSans-Bold-66" transform="translate(651.855469 0)"/>
     <use xlink:href="#DejaVuSans-Bold-6f" transform="translate(695.361328 0)"/>
     <use xlink:href="#DejaVuSans-Bold-72" transform="translate(764.0625 0)"/>
     <use xlink:href="#DejaVuSans-Bold-6d" transform="translate(813.378906 0)"/>
     <use xlink:href="#DejaVuSans-Bold-61" transform="translate(917.578125 0)"/>
     <use xlink:href="#DejaVuSans-Bold-6e" transform="translate(985.058594 0)"/>
     <use xlink:href="#DejaVuSans-Bold-63" transform="translate(1056.25 0)"/>
     <use xlink:href="#DejaVuSans-Bold-65" transform="translate(1115.527344 0)"/>
     <use xlink:href="#DejaVuSans-Bold-20" transform="translate(1183.349609 0)"/>
     <use xlink:href="#DejaVuSans-Bold-43" transform="translate(1218.164062 0)"/>
     <use xlink:href="#DejaVuSans-Bold-6f" transform="translate(1291.552734 0)"/>
     <use xlink:href="#DejaVuSans-Bold-6d" transform="translate(1360.253906 0)"/>
     <use xlink:href="#DejaVuSans-Bold-70" transform="translate(1464.453125 0)"/>
     <use xlink:href="#DejaVuSans-Bold-61" transform="translate(1536.035156 0)"/>
     <use xlink:href="#DejaVuSans-Bold-72" transform="translate(1603.515625 0)"/>
     <use xlink:href="#DejaVuSans-Bold-69" transform="translate(1652.832031 0)"/>
     <use xlink:href="#DejaVuSans-Bold-73" transform="translate(1687.109375 0)"/>
     <use xlink:href="#DejaVuSans-Bold-6f" transform="translate(1746.630859 0)"/>
     <use xlink:href="#DejaVuSans-Bold-6e" transform="translate(1815.332031 0)"/>
    </g>
   </g>
   <g id="legend_1">
    <g id="line2d_14">
     <path d="M 524.303969 53.765781 
L 535.303969 53.765781 
L 546.303969 53.765781 
" style="fill: none; stroke: #66c2a5; stroke-width: 2; stroke-linecap: round"/>
     <g>
      <use xlink:href="#m6521962a82" x="535.303969" y="53.765781" style="fill: #66c2a5; stroke: #66c2a5"/>
     </g>
    </g>
    <g id="text_11">
     <!-- Enhanced Active Inference -->
     <g style="fill: #262626" transform="translate(555.103969 57.615781) scale(0.11 -0.11)">
      <defs>
       <path id="DejaVuSans-6e" d="M 3513 2113 
L 3513 0 
L 2938 0 
L 2938 2094 
Q 2938 2591 2744 2837 
Q 2550 3084 2163 3084 
Q 1697 3084 1428 2787 
Q 1159 2491 1159 1978 
L 1159 0 
L 581 0 
L 581 3500 
L 1159 3500 
L 1159 2956 
Q 1366 3272 1645 3428 
Q 1925 3584 2291 3584 
Q 2894 3584 3203 3211 
Q 3513 2838 3513 2113 
z
" transform="scale(0.015625)"/>
       <path id="DejaVuSans-68" d="M 3513 2113 
L 3513 0 
L 2938 0 
L 2938 2094 
Q 2938 2591 2744 2837 
Q 2550 3084 2163 3084 
Q 1697 3084 1428 2787 
Q 1159 2491 1159 1978 
L 1159 0 
L 581 0 
L 581 4863 
L 1159 4863 
L 1159 2956 
Q 1366 3272 1645 3428 
Q 1925 3584 2291 3584 
Q 2894 3584 3203 3211 
Q 3513 2838 3513 2113 
z
" transform="scale(0.015625)"/>
       <path id="DejaVuSans-41" d="M 2188 4044 
L 1331 1722 
L 3047 1722 
L 2188 4044 
z
M 1831 4666 
L 2547 4666 
L 4325 0 
L 3669 0 
L 3244 1197 
L 1141 1197 
L 716 0 
L 50 0 
L 1831 4666 
z
" transform="scale(0.015625)"/>
       <path id="DejaVuSans-76" d="M 191 3500 
L 800 3500 
L 1894 563 
L 2988 3500 
L 3597 3500 
L 2284 0 
L 1503 0 
L 191 3500 
z
" transform="scale(0.015625)"/>
       <path id="DejaVuSans-49" d="M 628 4666 
L 1259 4666 
L 1259 0 
L 628 0 
L 628 4666 
z
" transform="scale(0.015625)"/>
       <path id="DejaVuSans-72" d="M 2631 2963 
Q 2534 3019 2420 3045 
Q 2306 3072 2169 3072 
Q 1681 3072 1420 2755 
Q 1159 2438 1159 1844 
L 1159 0 
L 581 0 
L 581 3500 
L 1159 3500 
L 1159 2956 
Q 1341 3275 1631 3429 
Q 1922 3584 2338 3584 
Q 2397 3584 2469 3576 
Q 2541 3569 2628 3553 
L 2631 2963 
z
" transform="scale(0.015625)"/>
      </defs>
      <use xlink:href="#DejaVuSans-45"/>
      <use xlink:href="#DejaVuSans-6e" transform="translate(63.183594 0)"/>
      <use xlink:href="#DejaVuSans-68" transform="translate(126.5625 0)"/>
      <use xlink:href="#DejaVuSans-61" transform="translate(189.941406 0)"/>
      <use xlink:href="#DejaVuSans-6e" transform="translate(251.220703 0)"/>
      <use xlink:href="#DejaVuSans-63" transform="translate(314.599609 0)"/>
      <use xlink:href="#DejaVuSans-65" transform="translate(369.580078 0)"/>
      <use xlink:href="#DejaVuSans-64" transform="translate(431.103516 0)"/>
      <use xlink:href="#DejaVuSans-20" transform="translate(494.580078 0)"/>
      <use xlink:href="#DejaVuSans-41" transform="translate(526.367188 0)"/>
      <use xlink:href="#DejaVuSans-63" transform="translate(593.025391 0)"/>
      <use xlink:href="#DejaVuSans-74" transform="translate(648.005859 0)"/>
      <use xlink:href="#DejaVuSans-69" transform="translate(687.214844 0)"/>
      <use xlink:href="#DejaVuSans-76" transform="translate(714.998047 0)"/>
      <use xlink:href="#DejaVuSans-65" transform="translate(774.177734 0)"/>
      <use xlink:href="#DejaVuSans-20" transform="translate(835.701172 0)"/>
      <use xlink:href="#DejaVuSans-49" transform="translate(867.488281 0)"/>
      <use xlink:href="#DejaVuSans-6e" transform="translate(896.980469 0)"/>
      <use xlink:href="#DejaVuSans-66" transform="translate(960.359375 0)"/>
      <use xlink:href="#DejaVuSans-65" transform="translate(995.564453 0)"/>
      <use xlink:href="#DejaVuSans-72" transform="translate(1057.087891 0)"/>
      <use xlink:href="#DejaVuSans-65" transform="translate(1095.951172 0)"/>
      <use xlink:href="#DejaVuSans-6e" transform="translate(1157.474609 0)"/>
      <use xlink:href="#DejaVuSans-63" transform="translate(1220.853516 0)"/>
      <use xlink:href="#DejaVuSans-65" transform="translate(1275.833984 0)"/>
     </g>
    </g>
    <g id="line2d_15">
     <path d="M 524.303969 69.911719 
L 535.303969 69.911719 
L 546.303969 69.911719 
" style="fill: none; stroke: #fc8d62; stroke-width: 2; stroke-linecap: round"/>
     <g>
      <use xlink:href="#mc74129c08d" x="535.303969" y="69.911719" style="fill: #fc8d62; stroke: #fc8d62"/>
     </g>
    </g>
    <g id="text_12">
     <!-- Activation Patching -->
     <g style="fill: #262626" transform="translate(555.103969 73.761719) scale(0.11 -0.11)">
      <defs>
       <path id="DejaVuSans-6f" d="M 1959 3097 
Q 1497 3097 1228 2736 
Q 959 2375 959 1747 
Q 959 1119 1226 758 
Q 1494 397 1959 397 
Q 2419 397 2687 759 
Q 2956 1122 2956 1747 
Q 2956 2369 2687 2733 
Q 2419 3097 1959 3097 
z
M 1959 3584 
Q 2709 3584 3137 3096 
Q 3566 2609 3566 1747 
Q 3566 888 3137 398 
Q 2709 -91 1959 -91 
Q 1206 -91 779 398 
Q 353 888 353 1747 
Q 353 2609 779 3096 
Q 1206 3584 1959 3584 
z
" transform="scale(0.015625)"/>
       <path id="DejaVuSans-50" d="M 1259 4147 
L 1259 2394 
L 2053 2394 
Q 2494 2394 2734 2622 
Q 2975 2850 2975 3272 
Q 2975 3691 2734 3919 
Q 2494 4147 2053 4147 
L 1259 4147 
z
M 628 4666 
L 2053 4666 
Q 2838 4666 3239 4311 
Q 3641 3956 3641 3272 
Q 3641 2581 3239 2228 
Q 2838 1875 2053 1875 
L 1259 1875 
L 1259 0 
L 628 0 
L 628 4666 
z
" transform="scale(0.015625)"/>
       <path id="DejaVuSans-67" d="M 2906 1791 
Q 2906 2416 2648 2759 
Q 2391 3103 1925 3103 
Q 1463 3103 1205 2759 
Q 947 2416 947 1791 
Q 947 1169 1205 825 
Q 1463 481 1925 481 
Q 2391 481 2648 825 
Q 2906 1169 2906 1791 
z
M 3481 434 
Q 3481 -459 3084 -895 
Q 2688 -1331 1869 -1331 
Q 1566 -1331 1297 -1286 
Q 1028 -1241 775 -1147 
L 775 -588 
Q 1028 -725 1275 -790 
Q 1522 -856 1778 -856 
Q 2344 -856 2625 -561 
Q 2906 -266 2906 331 
L 2906 616 
Q 2728 306 2450 153 
Q 2172 0 1784 0 
Q 1141 0 747 490 
Q 353 981 353 1791 
Q 353 2603 747 3093 
Q 1141 3584 1784 3584 
Q 2172 3584 2450 3431 
Q 2728 3278 2906 2969 
L 2906 3500 
L 3481 3500 
L 3481 434 
z
" transform="scale(0.015625)"/>
      </defs>
      <use xlink:href="#DejaVuSans-41"/>
      <use xlink:href="#DejaVuSans-63" transform="translate(66.658203 0)"/>
      <use xlink:href="#DejaVuSans-74" transform="translate(121.638672 0)"/>
      <use xlink:href="#DejaVuSans-69" transform="translate(160.847656 0)"/>
      <use xlink:href="#DejaVuSans-76" transform="translate(188.630859 0)"/>
      <use xlink:href="#DejaVuSans-61" transform="translate(247.810547 0)"/>
      <use xlink:href="#DejaVuSans-74" transform="translate(309.089844 0)"/>
      <use xlink:href="#DejaVuSans-69" transform="translate(348.298828 0)"/>
      <use xlink:href="#DejaVuSans-6f" transform="translate(376.082031 0)"/>
      <use xlink:href="#DejaVuSans-6e" transform="translate(437.263672 0)"/>
      <use xlink:href="#DejaVuSans-20" transform="translate(500.642578 0)"/>
      <use xlink:href="#DejaVuSans-50" transform="translate(532.429688 0)"/>
      <use xlink:href="#DejaVuSans-61" transform="translate(588.232422 0)"/>
      <use xlink:href="#DejaVuSans-74" transform="translate(649.511719 0)"/>
      <use xlink:href="#DejaVuSans-63" transform="translate(688.720703 0)"/>
      <use xlink:href="#DejaVuSans-68" transform="translate(743.701172 0)"/>
      <use xlink:href="#DejaVuSans-69" transform="translate(807.080078 0)"/>
      <use xlink:href="#DejaVuSans-6e" transform="translate(834.863281 0)"/>
      <use xlink:href="#DejaVuSans-67" transform="translate(898.242188 0)"/>
     </g>
    </g>
    <g id="line2d_16">
     <path d="M 524.303969 86.057656 
L 535.303969 86.057656 
L 546.303969 86.057656 
" style="fill: none; stroke: #8da0cb; stroke-width: 2; stroke-linecap: round"/>
     <g>
      <use xlink:href="#mb27fa54eb0" x="535.303969" y="86.057656" style="fill: #8da0cb; stroke: #8da0cb"/>
     </g>
    </g>
    <g id="text_13">
     <!-- Attribution Patching -->
     <g style="fill: #262626" transform="translate(555.103969 89.907656) scale(0.11 -0.11)">
      <defs>
       <path id="DejaVuSans-62" d="M 3116 1747 
Q 3116 2381 2855 2742 
Q 2594 3103 2138 3103 
Q 1681 3103 1420 2742 
Q 1159 2381 1159 1747 
Q 1159 1113 1420 752 
Q 1681 391 2138 391 
Q 2594 391 2855 752 
Q 3116 1113 3116 1747 
z
M 1159 2969 
Q 1341 3281 1617 3432 
Q 1894 3584 2278 3584 
Q 2916 3584 3314 3078 
Q 3713 2572 3713 1747 
Q 3713 922 3314 415 
Q 2916 -91 2278 -91 
Q 1894 -91 1617 61 
Q 1341 213 1159 525 
L 1159 0 
L 581 0 
L 581 4863 
L 1159 4863 
L 1159 2969 
z
" transform="scale(0.015625)"/>
      </defs>
      <use xlink:href="#DejaVuSans-41"/>
      <use xlink:href="#DejaVuSans-74" transform="translate(66.658203 0)"/>
      <use xlink:href="#DejaVuSans-74" transform="translate(105.867188 0)"/>
      <use xlink:href="#DejaVuSans-72" transform="translate(145.076172 0)"/>
      <use xlink:href="#DejaVuSans-69" transform="translate(186.189453 0)"/>
      <use xlink:href="#DejaVuSans-62" transform="translate(213.972656 0)"/>
      <use xlink:href="#DejaVuSans-75" transform="translate(277.449219 0)"/>
      <use xlink:href="#DejaVuSans-74" transform="translate(340.828125 0)"/>
      <use xlink:href="#DejaVuSans-69" transform="translate(380.037109 0)"/>
      <use xlink:href="#DejaVuSans-6f" transform="translate(407.820312 0)"/>
      <use xlink:href="#DejaVuSans-6e" transform="translate(469.001953 0)"/>
      <use xlink:href="#DejaVuSans-20" transform="translate(532.380859 0)"/>
      <use xlink:href="#DejaVuSans-50" transform="translate(564.167969 0)"/>
      <use xlink:href="#DejaVuSans-61" transform="translate(619.970703 0)"/>
      <use xlink:href="#DejaVuSans-74" transform="translate(681.25 0)"/>
      <use xlink:href="#DejaVuSans-63" transform="translate(720.458984 0)"/>
      <use xlink:href="#DejaVuSans-68" transform="translate(775.439453 0)"/>
      <use xlink:href="#DejaVuSans-69" transform="translate(838.818359 0)"/>
      <use xlink:href="#DejaVuSans-6e" transform="translate(866.601562 0)"/>
      <use xlink:href="#DejaVuSans-67" transform="translate(929.980469 0)"/>
     </g>
    </g>
    <g id="line2d_17">
     <path d="M 524.303969 102.203594 
L 535.303969 102.203594 
L 546.303969 102.203594 
" style="fill: none; stroke: #e78ac3; stroke-width: 2; stroke-linecap: round"/>
     <g>
      <use xlink:href="#made6e7854c" x="535.303969" y="102.203594" style="fill: #e78ac3; stroke: #e78ac3"/>
     </g>
    </g>
    <g id="text_14">
     <!-- Activation Ranking -->
     <g style="fill: #262626" transform="translate(555.103969 106.053594) scale(0.11 -0.11)">
      <defs>
       <path id="DejaVuSans-6b" d="M 581 4863 
L 1159 4863 
L 1159 1991 
L 2875 3500 
L 3609 3500 
L 1753 1863 
L 3688 0 
L 2938 0 
L 1159 1709 
L 1159 0 
L 581 0 
L 581 4863 
z
" transform="scale(0.015625)"/>
      </defs>
      <use xlink:href="#DejaVuSans-41"/>
      <use xlink:href="#DejaVuSans-63" transform="translate(66.658203 0)"/>
      <use xlink:href="#DejaVuSans-74" transform="translate(121.638672 0)"/>
      <use xlink:href="#DejaVuSans-69" transform="translate(160.847656 0)"/>
      <use xlink:href="#DejaVuSans-76" transform="translate(188.630859 0)"/>
      <use xlink:href="#DejaVuSans-61" transform="translate(247.810547 0)"/>
      <use xlink:href="#DejaVuSans-74" transform="translate(309.089844 0)"/>
      <use xlink:href="#DejaVuSans-69" transform="translate(348.298828 0)"/>
      <use xlink:href="#DejaVuSans-6f" transform="translate(376.082031 0)"/>
      <use xlink:href="#DejaVuSans-6e" transform="translate(437.263672 0)"/>
      <use xlink:href="#DejaVuSans-20" transform="translate(500.642578 0)"/>
      <use xlink:href="#DejaVuSans-52" transform="translate(532.429688 0)"/>
      <use xlink:href="#DejaVuSans-61" transform="translate(599.662109 0)"/>
      <use xlink:href="#DejaVuSans-6e" transform="translate(660.941406 0)"/>
      <use xlink:href="#DejaVuSans-6b" transform="translate(724.320312 0)"/>
      <use xlink:href="#DejaVuSans-69" transform="translate(782.230469 0)"/>
      <use xlink:href="#DejaVuSans-6e" transform="translate(810.013672 0)"/>
      <use xlink:href="#DejaVuSans-67" transform="translate(873.392578 0)"/>
     </g>
    </g>
   </g>
  </g>
 </g>
 <defs>
  <clipPath id="pddf008b7b3">
   <path d="M 599.515937 320.86 
C 599.515937 283.89343 592.234329 247.286314 578.087836 213.133657 
C 563.941342 178.981 543.205076 147.946985 517.065764 121.807673 
C 490.926452 95.668361 459.892437 74.932096 425.73978 60.785602 
C 391.587123 46.639108 354.980007 39.3575 318.013437 39.3575 
C 281.046868 39.3575 244.439752 46.639108 210.287095 60.785602 
C 176.134438 74.932096 145.100423 95.668361 118.961111 121.807673 
C 92.821799 147.946985 72.085533 178.981 57.939039 213.133657 
C 43.792546 247.286314 36.510938 283.89343 36.510938 320.86 
C 36.510938 357.82657 43.792546 394.433686 57.939039 428.586343 
C 72.085533 462.739 92.821799 493.773015 118.961111 519.912327 
C 145.100423 546.051639 176.134438 566.787904 210.287095 580.934398 
C 244.439752 595.080892 281.046868 602.3625 318.013437 602.3625 
C 354.980007 602.3625 391.587123 595.080892 425.73978 580.934398 
C 459.892437 566.787904 490.926452 546.051639 517.065764 519.912327 
C 543.205076 493.773015 563.941342 462.739 578.087836 428.586343 
C 592.234329 394.433686 599.515937 357.82657 599.515937 320.86 
M 318.013437 320.86 
C 318.013437 320.86 318.013437 320.86 318.013437 320.86 
C 318.013437 320.86 318.013437 320.86 318.013437 320.86 
C 318.013437 320.86 318.013437 320.86 318.013437 320.86 
C 318.013437 320.86 318.013437 320.86 318.013437 320.86 
C 318.013437 320.86 318.013437 320.86 318.013437 320.86 
C 318.013437 320.86 318.013437 320.86 318.013437 320.86 
C 318.013437 320.86 318.013437 320.86 318.013437 320.86 
C 318.013437 320.86 318.013437 320.86 318.013437 320.86 
C 318.013437 320.86 318.013437 320.86 318.013437 320.86 
C 318.013437 320.86 318.013437 320.86 318.013437 320.86 
C 318.013437 320.86 318.013437 320.86 318.013437 320.86 
C 318.013437 320.86 318.013437 320.86 318.013437 320.86 
C 318.013437 320.86 318.013437 320.86 318.013437 320.86 
C 318.013437 320.86 318.013437 320.86 318.013437 320.86 
C 318.013437 320.86 318.013437 320.86 318.013437 320.86 
C 318.013437 320.86 318.013437 320.86 318.013437 320.86 
z
"/>
  </clipPath>
 </defs>
</svg>
